<svg width="898" height="1080" viewBox="0 0 898 1080" fill="none" xmlns="http://www.w3.org/2000/svg">
<path d="M314.839 402.417C314.307 402.873 313.934 403.583 313.8 404.395C313.665 405.207 313.781 406.055 314.12 406.757C314.301 407.086 314.532 407.363 314.799 407.57C315.066 407.777 315.363 407.91 315.671 407.959C315.979 408.009 316.291 407.975 316.588 407.859C316.886 407.742 317.161 407.547 317.398 407.285C317.809 406.813 318.086 406.174 318.183 405.472C318.281 404.769 318.194 404.044 317.937 403.414C317.794 403.069 317.597 402.766 317.36 402.526C317.122 402.286 316.848 402.114 316.557 402.02C316.265 401.926 315.961 401.913 315.666 401.981C315.37 402.049 315.088 402.198 314.839 402.417ZM567.356 62.8919C575.947 69.9299 584.478 77.0656 592.949 84.2991C590.889 86.7266 588.926 89.291 587.068 91.9823C584.329 89.5776 581.59 87.2316 578.806 84.9443C578.707 84.8947 578.597 84.8927 578.497 84.9386C578.397 84.9844 578.312 85.0752 578.259 85.1947C578.205 85.3143 578.185 85.4549 578.203 85.5915C578.221 85.7282 578.276 85.8522 578.357 85.9413L586.349 92.9793C583.61 97.0262 581.051 101.308 578.671 105.589C578.402 106.117 579.03 106.586 579.3 106.117C581.78 101.83 584.433 97.7188 587.247 93.8004C591.378 97.554 595.419 101.366 599.46 105.179C596.472 109.882 593.728 114.839 591.243 120.017L584.418 112.275C584.014 111.865 583.475 112.275 583.835 112.979C586.08 115.736 588.325 118.492 590.615 121.19C588.418 125.889 586.424 130.745 584.643 135.735C584.643 136.263 585.047 136.732 585.272 136.204C587.074 131.388 589.083 126.708 591.288 122.187C595.554 127.407 599.864 132.627 604.219 137.729C600.119 146.068 596.617 154.884 593.758 164.063C593.758 164.474 594.162 164.65 594.296 164.063C597.172 155.039 600.706 146.398 604.848 138.257C608.979 143.125 613.199 147.934 617.42 152.626C611.195 161.81 605.995 172.098 601.974 183.183C601.974 183.535 602.244 183.887 602.423 183.535C607.014 172.966 612.382 163.007 618.453 153.799L622.943 158.785C623.437 159.312 624.155 158.433 623.661 157.788L619.171 152.333C620.383 150.574 628.151 140.603 631.07 137.729L638.882 146.351C639.286 146.82 639.87 146.058 639.466 145.588C637.041 142.597 634.572 139.723 632.057 136.732C635.47 133.272 639.062 130.046 642.699 126.996L646.425 130.163C646.785 130.457 647.144 129.694 646.785 129.342L643.507 126.293C645.931 124.298 648.446 122.363 650.96 120.428C651.409 120.134 650.96 119.372 650.601 119.665C647.777 121.408 645.033 123.367 642.384 125.53C636.772 120.369 631.159 115.266 625.457 110.281C630.193 106.069 635.426 102.899 640.947 100.897C641.067 100.85 641.167 100.744 641.226 100.601C641.284 100.458 641.298 100.29 641.262 100.135C641.226 99.9791 641.145 99.8484 641.035 99.7714C640.926 99.6944 640.797 99.6774 640.678 99.7241C634.802 101.528 629.24 104.772 624.29 109.284C618.902 104.533 613.424 99.8414 607.946 95.208C610.906 91.6106 614.524 89.066 618.453 87.8181C618.857 87.8181 618.767 86.7624 618.453 86.8211C614.146 87.7673 610.157 90.3829 607.003 94.3283L594.431 83.9472L595.554 82.481C595.913 82.0704 595.554 81.4253 595.06 81.8358C594.576 82.3121 594.111 82.8211 593.668 83.3607C585.002 76.2054 576.247 69.1674 567.491 62.2467C567.356 61.8948 566.997 62.5986 567.356 62.8919ZM591.962 120.779C594.027 116.615 599.774 106.938 600.358 106C605.207 110.692 609.966 115.442 614.681 120.252C611.19 125.05 608.021 130.23 605.207 135.735C600.852 130.633 596.407 125.706 591.962 120.779ZM618.453 151.277C614.322 146.234 610.146 141.307 605.881 136.439C608.767 130.996 612.012 125.894 615.579 121.19C620.518 126.293 625.412 131.454 630.261 136.732C626.037 141.165 622.088 146.029 618.453 151.277ZM641.801 126.117C638.127 129.019 634.602 132.232 631.249 135.735C626.49 130.281 621.64 125.002 616.657 119.841C619.109 116.771 621.736 113.948 624.514 111.395L641.801 126.117ZM623.347 110.34C620.644 112.899 618.106 115.744 615.759 118.844C610.999 113.976 606.15 109.225 601.256 104.651C603.075 101.746 605.04 99.0028 607.138 96.4397L623.347 110.34ZM606.15 95.5599C604.103 98.1732 602.169 100.934 600.358 103.83C596.272 100.017 592.141 96.3224 588.01 92.7447C589.896 90.1055 591.827 87.5835 593.758 85.0029L606.15 95.5599Z" fill="black" fill-opacity="0.8"/>
<path d="M577.01 943.932C570.589 941.938 561.026 945.457 555.323 944.342C552.854 944.183 550.498 942.937 548.64 940.807C546.781 938.678 545.529 935.79 545.086 932.612C543.984 914.144 541.518 895.858 537.722 878.009L535.792 878.596C535.343 876.426 536.106 862.174 522.322 772.674C517.068 738.129 512.713 703.056 494.978 675.08C497.178 670.506 499.468 665.931 501.398 661.298C502.341 659.186 504.182 656.43 504.182 653.79C504.182 649.509 495.651 629.157 493.002 624.114C487.614 613.85 485.728 613.967 480.475 619.949L438.673 562.942C443.406 546.992 446.559 530.317 448.057 513.324C472.707 514.497 830.695 510.45 843.447 510.157C850.406 510.157 858.668 510.157 864.639 504.292C865.739 503.243 866.62 501.851 867.201 500.242C867.781 498.633 868.043 496.859 867.962 495.084C868.501 488.397 870.162 126.175 869.893 121.483C869.444 112.862 868.097 103.888 861.272 101.483C843.581 95.6185 681.986 98.3164 669.459 98.7269C665.328 96.4396 661.646 94.2695 658.863 92.3927C604.085 54.974 599.37 52.3934 584.553 41.3672C575.304 34.4465 565.605 23.0098 554.829 20.7811C550.995 19.5789 546.953 20.4098 543.587 23.0919C540.221 25.7739 537.805 30.0887 536.869 35.0917C534.534 48.9331 538.486 66.1762 541.135 79.4311C542.212 84.8269 543.649 91.1611 545.625 98.0231C491.745 101.894 461.841 98.551 434.722 100.428C434.706 95.335 433.585 90.3524 431.489 86.0585C419.59 61.0736 389.777 80.78 389.732 80.7214C386.507 76.2856 382.55 72.8703 378.161 70.7358C373.773 68.6014 369.069 67.8041 364.408 68.4049C353.878 69.5953 343.748 74.2348 334.954 81.8944C319.688 96.7915 312.504 125.589 320.99 148.638C320.99 148.638 312.28 165.295 311.292 175.207C309.181 195.91 322.023 213.153 338.815 201.364C337.917 204.414 339.803 205.705 339.264 207.816C338.995 208.872 338.097 209.399 337.648 210.338C335.448 214.795 344.338 219.546 337.064 225.997C335.331 227.104 333.8 228.684 332.574 230.631C332.189 231.317 331.955 232.129 331.9 232.978C331.844 233.826 331.969 234.678 332.26 235.44C333.113 238.021 334.46 237.141 335.583 237.61C339.13 238.959 335.583 247.639 338.456 250.454C339.668 251.627 341.599 251.276 342.452 252.859C343.305 254.443 342.183 257.023 340.881 258.372C338.097 261.305 337.199 263.006 339.489 266.407L348.244 279.193C346.942 282.184 342.677 279.897 341.509 283.885C341.291 284.757 341.264 285.691 341.431 286.582C341.597 287.473 341.951 288.286 342.452 288.929C344.328 290.942 346.72 291.949 349.142 291.744V288.929L354.71 284.765C359.2 288.108 353.812 298.841 358.077 301.48C358.077 303.122 356.237 303.063 355.114 303.885C352.959 305.527 354.306 311.216 358.975 309.75C360.878 309.13 362.547 307.643 363.684 305.557C364.82 303.47 365.348 300.922 365.172 298.372C368.405 298.841 367.776 305.292 370.335 308.283V309.163C366.65 308.857 362.964 309.744 359.604 311.744C353.815 313.88 348.12 316.425 342.542 319.368C312.504 335.204 311.741 342.828 288.662 377.666C283.755 385.063 279.254 392.902 275.192 401.126C274.923 401.713 274.474 401.126 285.295 413.325C281.954 417.589 279.069 422.422 276.719 427.695C228.99 426.58 45.798 425.466 40.1406 425.642C30.3075 425.642 25.1889 429.278 24.1562 442.768C23.1684 455.319 21.9112 595.961 22.7194 629.157C23.1235 645.931 23.9317 662.764 24.1562 679.538C24.3807 696.312 23.0786 720.593 30.6218 730.153C36.4588 737.367 46.7858 735.666 54.0596 736.018C77.3627 736.018 100.441 736.018 123.699 734.493C120.813 744.061 118.881 754.075 117.952 764.287C111.828 792.241 111.41 821.803 116.74 850.033C100.666 841.588 69.0562 827.16 66.8112 831.852C73.3541 859.595 85.1533 884.731 101.115 904.93C79.8476 900.549 58.0659 904.065 38.2548 915.076C63.1294 934.959 101.788 968.154 131.916 950.618C94.8288 963.521 67.8888 935.193 39.4222 915.428C59.6317 904.632 81.7702 901.541 103.27 906.513C105.811 907.878 108.273 909.486 110.634 911.323C110.903 911.323 111.262 910.677 110.185 909.739C87.7346 894.021 76.9137 860.708 67.8888 831.793C95.3676 837.658 123.52 851.969 143.725 874.96C137.888 863.757 117.414 850.737 118.042 850.385C112.385 813.67 115.977 791.383 118.401 769.155C120.691 782.938 131.332 777.425 131.332 777.425C136.646 765.725 144.237 756.072 153.334 749.449L159.53 756.193C171.52 781.941 180.168 810.101 185.123 839.535C182.137 845.563 179.625 851.968 177.624 858.655C177.131 861.646 178.298 860.062 178.522 859.476C186.604 837.365 201.826 810.621 212.691 802.41C223.079 810.743 234.111 817.624 245.603 822.937C241.382 846.866 229.529 891.616 229.529 891.616C229.529 891.616 230.741 892.789 258.669 886.514C254.046 897.782 247.659 907.652 239.923 915.484C232.187 923.315 223.276 928.931 213.769 931.967C213.095 931.967 213.095 933.375 213.769 933.316C229.278 933.307 244.765 934.797 260.106 937.774C260.51 937.774 260.645 936.894 260.106 936.835C246.143 933.455 231.965 931.825 217.765 931.967C234.962 924.636 255.526 909.915 260.375 885.693C252.652 881.88 240.889 887.687 231.19 889.329C238.777 868.468 243.952 846.252 246.546 823.406C253.464 826.291 260.626 828.064 267.873 828.685C281.056 830.735 294.365 826.576 305.41 816.955C316.215 807.552 325.367 795.257 332.26 780.885C337.334 782.938 344.877 789.565 351.163 786.222C356.768 782.019 361.001 775.28 363.061 767.278C364.757 762.322 364.981 756.72 363.69 751.56C372.041 738.422 376.621 707.162 378.148 698.13C380.209 687.45 384.045 677.494 389.384 668.969C394.723 660.445 401.434 653.56 409.039 648.805C414.292 647.046 411.329 651.444 411.329 651.444C402.628 656.607 395.084 664.594 389.417 674.646C383.75 684.697 380.148 696.477 378.956 708.863L407.198 740.358C404.594 745.695 401.541 749.742 404.055 756.956C407.701 765.587 413.01 772.825 419.456 777.953C421.252 779.536 423.003 781.53 425.203 780.709C427.403 779.888 433.689 770.562 434.542 769.39C437.858 774.002 441.546 778.132 445.543 781.706C447.878 784.169 451.649 786.867 452.592 790.21C453.126 793.302 453.501 796.437 453.715 799.594C458.923 833.318 477.512 875.839 493.137 904.226C489.051 907.452 487.39 909.094 487.39 909.094L527.8 991.614C566.593 984.459 582.488 960.823 583.79 954.254C584.194 951.615 581.32 945.105 577.01 943.932ZM866.57 493.148C866.031 500.831 864.639 503.646 858.084 506.11C848.206 509.805 466.87 511.564 448.461 511.154C450.122 496.139 451.425 484.057 452.278 469.747C456.364 473.676 460.045 478.544 463.907 482.826C463.961 482.902 464.027 482.963 464.101 483.005C464.174 483.046 464.253 483.068 464.333 483.068C464.413 483.068 464.492 483.046 464.566 483.005C464.639 482.963 464.705 482.902 464.76 482.826C466.78 480.421 468.711 477.958 470.642 475.436C479.047 483.615 488.319 490.155 498.165 494.849C502.099 496.767 506.288 497.635 510.483 497.404C514.678 497.172 518.795 495.845 522.591 493.5C540.754 481.694 555.201 461.993 563.45 437.783C604.534 436.668 645.662 436.727 686.701 433.501C686.797 433.51 686.893 433.491 686.983 433.447C687.073 433.403 687.155 433.334 687.223 433.245C687.291 433.157 687.344 433.05 687.378 432.932C687.412 432.814 687.426 432.688 687.419 432.563C686.656 406.463 686.835 379.074 685.219 352.975C746.283 350.394 806.943 347.637 868.007 345.995C868.007 378.957 867.737 477.137 866.57 493.148ZM427.403 297.609C427.054 297.561 426.701 297.605 426.365 297.74C426.029 297.874 425.718 298.096 425.449 298.392C425.181 298.688 424.961 299.052 424.803 299.461C424.645 299.871 424.552 300.318 424.53 300.776C424.53 302.946 424.26 305.058 424.036 308.107C421.375 312.083 418.929 316.297 416.717 320.717C414.076 327.897 411.942 335.377 410.341 343.063C409.398 339.778 404.953 322.242 404.818 322.007C399.438 314.75 393.612 308.08 387.397 302.066C387.723 301.659 387.969 301.157 388.116 300.6C390.689 293.707 391.567 285.943 390.63 278.372C389.732 273.328 387.218 266.994 391.393 263.357C391.757 262.965 392.225 262.775 392.695 262.83C395.3 263.299 394.312 269.926 394.312 272.155C394.312 285.586 393.997 288.812 395.659 291.275C395.982 291.837 396.43 292.258 396.941 292.48C397.452 292.702 398.003 292.715 398.52 292.517C399.037 292.32 399.496 291.921 399.835 291.374C400.174 290.827 400.378 290.158 400.418 289.457C401.361 283.944 398.667 278.196 399.43 272.624C400.059 268.049 402.977 263.299 401.181 259.252C400.677 258.444 400.226 257.58 399.835 256.671C398.488 252.507 403.337 248.519 402.529 244.179C401.99 241.07 398.802 239.428 398.847 236.261C399.023 234.914 399.422 233.634 400.014 232.508C401.311 229.406 401.633 225.767 400.912 222.361C400.461 220.863 400.204 219.277 400.149 217.669C400.149 216.086 401.271 214.443 402.484 214.795C403.059 215.081 403.591 215.498 404.055 216.027C404.503 216.319 404.995 216.476 405.495 216.489C405.995 216.501 406.491 216.367 406.947 216.098C407.403 215.828 407.807 215.429 408.13 214.93C408.453 214.431 408.687 213.844 408.815 213.212C408.841 211.461 408.644 209.716 408.231 208.051C407.944 205.63 408.37 203.157 409.424 201.13C410.477 199.104 412.08 197.675 413.909 197.132C415.738 196.589 417.656 196.971 419.277 198.203C420.898 199.435 422.101 201.424 422.644 203.769C423.272 206.526 422.958 209.634 424.215 211.98C425.472 214.326 426.999 214.795 428.346 216.32C430.801 220.472 431.913 225.714 431.444 230.924C431.444 236.085 432.971 242.302 436.787 243.651C438.808 240.601 436.787 235.968 436.787 231.921C437.186 227.445 438.775 223.293 441.277 220.191C441.951 219.135 442.759 217.904 443.971 218.197C444.355 218.328 444.712 218.569 445.015 218.904C445.319 219.239 445.56 219.659 445.722 220.132C446.127 222.191 446.127 224.35 445.722 226.408C445.094 236.261 451.559 243.065 450.976 252.918C450.775 257.268 449.984 261.538 448.641 265.527C441.906 282.595 439.661 289.398 435.799 293.855C433.486 296.496 430.47 297.844 427.403 297.609ZM434.497 317.55C431.264 325.937 429.154 335.145 425.517 343.356C423.227 335.908 417.66 321.128 417.615 321.069C419.052 319.016 423.991 311.099 426.056 307.814C427.433 307.657 428.813 308.056 430.01 308.959C431.207 309.861 432.162 311.222 432.746 312.858C433.078 314.562 433.674 316.159 434.497 317.55ZM404.1 322.594C400.589 329.97 397.439 337.629 394.671 345.526C390.585 339.661 376.711 316.201 372.221 309.104C373.793 309.515 374.511 307.697 375.139 306.465C376.228 304.377 377.804 302.803 379.632 301.979C381.461 301.155 383.444 301.124 385.287 301.891H385.915C389.912 307.404 401.271 319.251 404.1 322.594ZM449.808 312.154C450.682 312.696 451.639 312.97 452.607 312.957C453.574 312.944 454.526 312.644 455.392 312.078C456.257 311.513 457.012 310.698 457.601 309.695C458.189 308.692 458.595 307.528 458.788 306.289C458.952 302.927 459.738 299.666 461.078 296.788C466.421 288.225 482.72 300.131 478.41 270.923C477.991 269.37 477.966 267.682 478.338 266.109C478.71 264.535 479.459 263.16 480.475 262.184C484.965 255.968 489.455 246.994 486.896 238.724C486.12 237.043 485.53 235.226 485.145 233.329C484.785 228.989 488.288 225.294 487.794 221.012C484.854 219.214 482.51 216.09 481.193 212.215C480.161 207.523 482.316 202.713 483.214 197.963C484.112 193.212 482.451 186.233 478.724 186.819C478.722 187.669 478.539 188.501 478.195 189.222C477.851 189.943 477.36 190.525 476.778 190.903C476.195 191.28 475.543 191.438 474.896 191.359C474.248 191.28 473.63 190.967 473.111 190.456C469.879 187.288 472.393 183.124 473.111 179.547C473.224 176.73 472.717 173.93 471.651 171.478C470.585 169.025 469.004 167.022 467.095 165.705C463.23 163.168 459.574 160.122 456.184 156.614C456.606 155.698 457.172 154.911 457.846 154.304C458.52 153.697 459.285 153.285 460.09 153.095C460.629 149.576 457.351 147.23 454.657 146.527C445.369 143.966 435.706 145.09 426.909 149.752C425.182 150.994 423.219 151.564 421.252 151.395C419.321 150.867 417.705 147.758 418.917 145.53C419.411 144.591 420.444 143.887 420.848 143.008C435.306 143.008 432.791 141.424 489.859 142.011C512.893 142.011 535.882 142.773 558.915 142.832C562.029 153.123 565.536 163.204 569.422 173.036C579.009 195.604 591.115 216.181 605.342 234.091C591.872 231.98 548.813 233.094 538.396 232.684C538.217 232.684 538.046 232.776 537.92 232.941C537.793 233.106 537.722 233.33 537.722 233.563C538.082 267.815 538.62 302.829 540.327 337.022C539.679 338.389 539.295 339.942 539.209 341.546C539.123 343.15 539.337 344.758 539.833 346.23L503.509 389.924C496.19 378.194 468.172 335.321 439.706 316.142C443.118 313.386 443.702 308.459 449.584 312.154H449.808ZM611.448 259.369C596.182 276.612 568.03 310.747 560.801 321.949C559.759 321.11 558.594 320.568 557.38 320.358C556.167 320.147 554.934 320.273 553.76 320.727C552.587 321.18 551.5 321.952 550.57 322.991C549.64 324.03 548.888 325.314 548.364 326.758C546.881 327.276 545.546 328.344 544.518 329.832C543.49 331.321 542.814 333.166 542.572 335.145C542.015 335.365 541.497 335.723 541.045 336.201C539.474 304.295 538.261 236.496 538.62 234.736C538.62 235.323 594.745 234.736 605.97 235.968C607.811 238.255 608.844 239.546 610.73 241.833C610.64 247.463 611.224 253.739 611.224 259.487L611.448 259.369ZM618.991 251.1C617.465 252.624 615.355 254.912 612.84 257.786C612.84 252.331 612.481 247.287 612.301 242.947C614.008 244.941 615.714 246.877 617.465 248.812C617.734 249.692 618.228 250.454 618.767 251.217L618.991 251.1ZM614.097 232.273C608.709 201.013 623.841 177.083 641.576 153.565C648.571 143.128 656.64 134.009 665.553 126.468C675.071 119.43 688.497 113.8 699.452 117.612C704.326 119.681 708.711 123.352 712.186 128.271C715.661 133.191 718.11 139.194 719.298 145.706C725.315 173.388 712.698 200.661 698.868 220.367C683.647 242.009 659.132 264.589 635.47 259.545C630.299 258.072 625.542 254.754 621.73 249.96C617.917 245.165 615.197 239.083 613.873 232.39L614.097 232.273ZM613.783 354.675C613.794 354.93 613.88 355.168 614.022 355.343C614.164 355.517 614.351 355.614 614.546 355.614C637.834 354.793 661.153 353.874 684.5 352.857C684.5 372.974 686.925 423.707 686.207 428.223C685.488 432.739 680.055 432.093 676.463 432.328C669.1 432.797 595.194 435.261 564.213 435.964C573.508 407.226 570.948 377.314 567.94 342.945C567.982 337.668 567.187 332.436 565.605 327.579C566.818 324.471 570.095 323.004 568.479 316.436C579.659 303.709 599.056 280.19 611.313 264.941C611.313 294.97 612.571 324.999 613.558 354.793L613.783 354.675ZM505.125 393.795C506.158 392.446 531.616 361.068 540.506 349.983L541.404 369.045C532.865 384.506 525.949 401.391 520.84 419.249C516.136 412.326 510.815 406.163 504.99 400.892C505.272 398.544 505.318 396.158 505.125 393.795ZM542.482 367.051L541.584 348.693L543.739 345.937C544.951 347.813 545.58 352.154 546.658 353.62C546.972 354.148 548.364 355.79 548.903 355.497C549.441 355.203 546.164 360.13 542.482 366.992V367.051ZM521.693 423.12C522.097 423.648 522.905 423.12 522.546 422.24C522.187 421.361 521.693 420.657 521.109 419.718C528.781 396.723 538.599 375.054 550.339 355.203C550.386 355.105 550.415 354.995 550.427 354.88C550.438 354.765 550.431 354.649 550.406 354.538C550.38 354.427 550.337 354.325 550.279 354.237C550.221 354.15 550.15 354.079 550.07 354.03C549.06 353.337 548.173 352.373 547.469 351.2C546.765 350.028 546.259 348.673 545.984 347.227C545.4 345.116 545.445 342.535 543.425 342.183C542.167 342.183 540.282 344.177 540.372 344.236C540.461 344.294 540.372 333.034 549.935 337.374C550.743 337.784 551.058 336.142 550.25 335.732C548.02 334.673 545.605 334.47 543.29 335.145C544.004 332.617 545.412 330.526 547.241 329.28C548.272 328.823 549.377 328.735 550.443 329.023C551.509 329.312 552.496 329.968 553.303 330.922C553.432 331.049 553.593 331.111 553.755 331.096C553.916 331.081 554.068 330.99 554.183 330.841C554.298 330.691 554.367 330.492 554.379 330.281C554.39 330.07 554.343 329.86 554.246 329.691C553.602 328.709 552.778 327.958 551.852 327.506C550.925 327.055 549.926 326.919 548.947 327.11C552.899 319.251 561.026 321.773 564.573 328.987C566.041 332.887 566.765 337.193 566.683 341.538C568.516 358.439 569.402 375.493 569.332 392.563C569.557 409.616 566.647 426.491 560.846 441.771C553.619 460.47 542.629 476.245 529.057 487.4C524.69 491.545 519.627 494.261 514.291 495.323C508.956 496.384 503.503 495.759 498.39 493.5C488.783 488.892 479.716 482.555 471.45 474.673C479.138 464.636 485.917 453.478 491.655 441.419C497.479 429.183 501.911 415.907 504.811 402.006C510.648 408.927 516.35 415.789 521.693 423.12ZM562.103 323.063C563.45 321.714 565.246 319.779 567.356 317.198C567.668 319.216 567.379 321.314 566.548 323.063C565.838 323.953 565.259 325.007 564.842 326.172C564.08 325.07 563.185 324.139 562.193 323.415L562.103 323.063ZM504.092 394.968C504.092 407.402 498.3 422.006 493.99 432.504C486.676 449.538 477.443 465.038 466.601 478.486C465.478 480.186 465.254 481.242 464.266 481.008C463.278 480.773 455.87 470.92 452.457 468.28C452.457 464.761 452.861 461.125 453.041 457.372C470.103 436.727 488.243 414.498 504.092 394.968ZM868.097 343.943C823.735 345.116 623.841 354.148 618.587 353.62C615.31 353.268 614.995 352.857 614.861 348.224C614.861 344.998 613.828 297.668 612.795 263.123C616.073 259.017 618.767 255.616 620.428 253.446C624.268 258.453 629.216 261.757 634.572 262.888C657.561 267.228 681.223 248.167 696.848 227.698C714.808 204.238 729.535 171.688 720.555 140.662C746.911 141.6 844.344 138.961 868.725 137.26C868.815 166.996 868.231 304.706 868.097 343.943ZM857.051 102.129C869.264 105.706 868.68 119.724 868.68 135.442C844.21 136.38 745.879 138.492 720.151 139.489C717.445 130.207 712.327 122.464 705.693 117.612C703.987 116.439 685.937 107.876 671.659 100.017C725.315 98.7856 847.083 99.1961 857.051 102.129ZM539.114 56.0297C538.216 48.0533 536.69 37.6723 540.102 30.3411C543.515 23.0098 551.776 21.4263 558.062 24.0069C565.965 27.2326 567.895 31.69 589.492 47.4668C602.064 56.4989 647.458 87.5248 660.075 96.1463C669.754 103.061 679.845 108.945 690.248 113.741C684.337 114.223 678.52 115.905 673.006 118.727C661.902 125.014 651.998 134.427 644.001 146.292C634.357 158.135 625.799 171.4 618.497 185.822C607.946 208.578 609.293 231.628 615.265 245C576.696 199.488 564.573 165.119 548.184 102.129C544.08 87.1601 541.044 71.7282 539.114 56.0297ZM546.119 100.545C549.486 113.624 553.707 128.287 557.793 141.6C481.463 141.6 440.2 139.841 420.488 142.714C420.264 141.717 419.186 141.248 418.378 141.014C425.966 130.633 434.363 116.615 434.722 102.363C453.759 103.243 516.799 102.656 546.119 100.545ZM336.346 82.9501C343.67 76.8888 351.882 72.8935 360.457 71.2201C365.378 69.7678 370.499 69.9575 375.348 71.7718C380.198 73.5861 384.62 76.9665 388.205 81.6011C388.205 81.6011 345.73 100.545 321.664 147.876C316.455 123.595 319.778 98.375 336.346 82.9501ZM345.73 188.52C345.08 190.251 344.144 191.774 342.991 192.977C342.003 194.444 341.33 196.731 342.318 198.197C342.323 198.071 342.301 197.945 342.256 197.833C342.211 197.721 342.143 197.627 342.06 197.561C341.978 197.495 341.883 197.459 341.786 197.457C341.689 197.456 341.593 197.489 341.509 197.552C331.048 206.115 317.982 205.705 313.671 188.52C310.349 175.382 315.243 162.304 321.125 151.864C349.142 102.011 394.222 75.6188 414.786 75.6188C427.852 75.9121 434.587 91.8649 432.163 107.466C430.187 120.662 423.183 130.926 416.358 140.192C411.868 140.838 407.782 146.527 400.239 155.324C400.31 154.12 400.219 152.909 399.969 151.747C407.288 143.77 414.158 131.336 414.382 118.668C414.382 113.683 413.798 105.765 410.296 102.656C406.794 99.548 399.61 101.659 395.12 102.539C381.267 106.085 368.27 113.93 357.224 125.413C348.244 134.327 336.975 145.178 334.101 160.603C332.125 170.925 337.244 185.294 346.493 182.069C345.73 184.884 346.448 186.585 345.73 188.52ZM367.596 172.743C361.939 173.858 361.49 166.174 357.09 165.353C356.448 165.215 355.791 165.406 355.255 165.887C354.719 166.368 354.347 167.102 354.216 167.934C354.216 169.693 355.024 170.456 355.743 171.512C356.157 172.288 356.421 173.183 356.513 174.122C356.605 175.06 356.522 176.014 356.27 176.901C356.019 177.789 355.607 178.583 355.069 179.218C354.532 179.852 353.885 180.307 353.183 180.544L351.028 176.79C349.458 177.351 348.1 178.645 347.212 180.426C345.577 180.772 343.904 180.62 342.321 179.984C340.738 179.348 339.289 178.243 338.087 176.757C336.884 175.271 335.959 173.443 335.385 171.414C334.81 169.385 334.601 167.211 334.774 165.06C335.777 156.126 339.164 147.941 344.338 141.952C370.964 107.055 404.459 97.2607 411.06 106.175C414.427 110.75 416.313 131.747 399.43 150.691C399.27 150.326 399.044 150.017 398.773 149.789C398.502 149.561 398.193 149.422 397.873 149.381C397.552 149.341 397.228 149.402 396.929 149.558C396.63 149.715 396.364 149.962 396.153 150.28C394.896 152.509 398.263 155.031 393.144 157.26C392.112 157.729 389.777 158.081 389.103 157.26C387.891 155.324 391.753 152.098 390.181 150.749C388.969 148.403 385.691 149.576 384.748 151.981C383.91 154.613 383.264 157.343 382.817 160.133C381.605 164.415 378.327 165.529 377.34 163.652C374.735 158.667 378.238 158.843 378.103 156.028C378.103 151.981 372.445 152.568 372.715 160.016C372.715 163.359 373.748 166.702 371.996 169.869C370.95 171.569 369.434 172.664 367.776 172.919L367.596 172.743ZM276.629 401.478C276.629 400.892 278.111 398.487 278.38 397.959C282.953 389.386 287.915 381.18 293.242 373.385C312.639 344.06 314.749 336.905 338.77 323.298C343.978 320.325 349.298 317.702 354.71 315.439C358.706 313.796 367.282 308.694 371.323 310.805C373.029 315.556 374.331 317.257 393.997 346.582C393.997 346.582 393.997 346.992 394.312 346.582C394.626 346.171 401.406 330.981 404.325 323.532C404.863 330.795 406.743 337.779 409.802 343.884C409.839 343.956 409.889 344.016 409.948 344.057C410.007 344.098 410.072 344.12 410.139 344.12C410.206 344.12 410.271 344.098 410.33 344.057C410.389 344.016 410.439 343.956 410.476 343.884C413.303 337.017 415.532 329.758 417.121 322.242C419.591 329.749 422.823 336.729 425.113 344.353C425.113 344.353 426.101 344.764 426.281 344.353C429.064 335.497 433.061 327.051 435.261 317.843C435.722 318.1 436.218 318.232 436.72 318.232C437.221 318.232 437.718 318.1 438.179 317.843C467.678 343.473 474.997 350.277 502.566 391.566C487.255 410.041 469.834 431.038 453.176 451.037C453.626 442.034 453.626 433.003 453.176 424C453.176 423.413 451.29 414.909 451.2 423.531C451.2 429.982 451.2 441.126 450.706 454.029C429.738 479.483 410.296 502.943 399.475 516.901C397.33 516.416 395.127 516.617 393.055 517.488C392.211 517.953 391.292 518.133 390.381 518.01C389.471 517.887 388.599 517.465 387.846 516.784C386.185 515.787 347.436 492.796 340.611 487.987C338.187 486.227 330.913 482.884 331.003 478.544C331.003 477.019 336.121 466.814 337.064 464.468C342.138 468.984 342.003 469.16 342.452 468.632C355.415 453.873 366.204 436.143 374.286 416.317C374.301 416.282 374.311 416.244 374.314 416.204C374.317 416.165 374.315 416.125 374.307 416.087C374.298 416.049 374.284 416.013 374.265 415.982C374.246 415.951 374.223 415.925 374.197 415.906C374.17 415.887 374.141 415.875 374.111 415.87C374.081 415.866 374.05 415.869 374.021 415.88C373.992 415.891 373.964 415.909 373.941 415.934C373.917 415.958 373.897 415.989 373.882 416.023C369.033 426.639 343.395 467.283 341.958 467.225C340.522 467.166 309.99 437.9 308.598 436.434C314.243 429.003 319.465 421.045 324.223 412.622C324.586 406.355 324.586 400.062 324.223 393.795C324.213 393.628 324.157 393.472 324.067 393.354C323.976 393.236 323.857 393.163 323.729 393.15C318.88 393.15 313.267 391.214 309.99 396.317C304.557 404.704 298.899 412.563 293.556 421.009C292.209 419.073 276.853 401.947 276.809 401.361L276.629 401.478ZM307.7 435.495C303.21 430.92 298.72 426.287 294.23 421.419C298.989 415.554 309.855 397.255 311.516 395.555C314.965 394.024 318.642 393.582 322.247 394.264C324.043 394.909 323.639 405.408 323.325 409.337C323.011 413.267 311.426 430.217 307.879 435.378L307.7 435.495ZM286.193 413.912C302.17 431.588 318.852 448.151 336.166 463.53C330.733 477.606 327.546 479.131 328.713 480.128C347.975 496.96 370.515 505.054 390.136 521.183C391.079 522.004 392.561 518.074 398.263 518.426L394.985 522.59C394.869 522.154 394.869 521.678 394.985 521.241C394.985 520.89 394.985 520.714 394.626 520.89C392.561 523.177 396.961 527.458 401.855 522.766C402.645 523.763 403.245 524.989 403.606 526.344C403.78 527.364 403.774 528.423 403.587 529.439C403.4 530.456 403.038 531.403 402.529 532.209C401.474 533.719 400.107 534.799 398.594 535.319C397.081 535.839 395.485 535.777 393.997 535.141C393.997 535.141 393.548 535.552 393.997 535.728C395.514 536.7 397.223 537.041 398.893 536.706C400.563 536.37 402.114 535.374 403.337 533.851C403.786 535.209 403.924 536.708 403.732 538.166C403.541 539.624 403.029 540.978 402.259 542.062C399.7 545.757 396.242 544.525 393.01 543.704C392.935 543.678 392.855 543.688 392.785 543.734C392.716 543.78 392.662 543.858 392.634 543.953C392.606 544.048 392.606 544.153 392.634 544.248C392.662 544.343 392.716 544.421 392.785 544.467C394.793 546.045 397.184 546.569 399.475 545.933C399.475 552.443 389.956 551.798 387.218 550.86C384.521 549.514 382.039 547.525 379.899 544.995C378.866 543.822 377.429 540.655 376.262 540.009C375.095 539.364 367.282 541.358 344.383 540.831C307.61 539.951 301.414 533.441 286.866 513.558C264.371 482.591 266.841 441.595 286.372 413.795L286.193 413.912ZM26.94 434.85C31.43 423.707 47.145 427.577 54.9576 427.577C78.3056 427.577 225.308 428.223 276.449 429.63C272.325 439.467 270.048 450.442 269.804 461.653C227.598 460.363 65.105 460.48 24.695 461.301C24.8746 452.445 24.0215 441.829 26.94 434.85ZM143.68 687.631C137.843 692.382 129.671 713.203 124.104 732.909C40.9488 734.61 39.2875 735.783 33.2709 730.974C24.7399 724.229 25.3236 700.593 25.3685 687.807C25.4134 675.022 24.9195 661.943 24.5154 649.04C22.5398 586.988 24.7848 462.416 24.7848 462.181C44.6755 463.471 227.463 462.181 269.849 463.471C269.849 490.392 281.972 512.209 298.091 528.573C297.418 530.274 292.973 537.312 292.703 538.074C295.965 542.946 299.573 547.404 303.479 551.388L265.359 672.031C264.37 671.028 263.133 670.534 261.884 670.642C260.634 670.75 259.459 671.453 258.579 672.617C254.089 678.013 253.371 690.212 252.248 697.25C250.856 706.575 251.081 709.449 258.579 720.71C258.579 720.71 249.599 736.487 249.599 736.78C249.599 737.073 210.042 721.238 205.687 720.182C206.181 716.194 206.45 713.789 206.45 713.789C206.45 713.789 153.827 679.362 143.68 687.631ZM320.227 641.708C320.227 642.178 329.97 642.94 352.69 629.979C352.69 632.911 334.729 693.027 334.729 693.027C334.729 693.027 330.823 704.053 319.823 696.898C310.804 690.322 302.214 682.79 294.14 674.377C294.14 674.377 288.168 669.333 293.511 654.787C298.854 640.242 310.439 603.997 311.112 602.589C312.077 616.296 315.163 629.605 320.182 641.708H320.227ZM312.235 600.654C313.447 598.835 315.108 597.545 316.725 599.422L346.448 617.603C348.051 618.426 349.456 619.797 350.514 621.571C351.572 623.346 352.246 625.46 352.465 627.691C347.706 630.624 326.737 640.711 321.035 639.773C316.448 627.525 313.459 614.363 312.19 600.829L312.235 600.654ZM179.959 750.504C178.661 756.217 176.789 761.68 174.392 766.75C173.898 767.747 172.461 767.161 172.82 765.871C174.347 760.357 176.951 755.196 178.882 749.918C178.911 749.825 178.954 749.741 179.009 749.671C179.063 749.6 179.127 749.544 179.198 749.506C179.269 749.468 179.345 749.448 179.422 749.449C179.498 749.449 179.574 749.469 179.645 749.507C179.716 749.546 179.78 749.602 179.834 749.673C179.888 749.744 179.931 749.828 179.96 749.921C179.989 750.013 180.004 750.112 180.004 750.213C180.004 750.313 179.989 750.412 179.959 750.504ZM172.73 744.639C171.877 747.279 169.542 757.425 168.555 759.36C168.477 759.544 168.355 759.688 168.207 759.77C168.06 759.852 167.896 759.867 167.741 759.813C167.586 759.759 167.449 759.639 167.353 759.472C167.256 759.305 167.205 759.101 167.208 758.891C168.214 753.678 169.723 748.653 171.698 743.935C172.102 743.29 173 744.053 172.73 744.874V744.639ZM159.844 752.44C160.822 747.7 162.053 743.056 163.526 738.54C163.567 738.337 163.669 738.165 163.808 738.061C163.947 737.956 164.112 737.928 164.267 737.982C164.421 738.037 164.553 738.169 164.633 738.351C164.713 738.532 164.735 738.748 164.693 738.95C163.854 743.808 162.604 748.529 160.966 753.026C160.885 753.134 160.784 753.213 160.672 753.255C160.56 753.297 160.442 753.3 160.329 753.265C160.216 753.229 160.112 753.156 160.027 753.053C159.942 752.949 159.879 752.819 159.844 752.674V752.44ZM185.931 837.775C182.17 809.683 174.074 782.884 162.134 759.009L188.625 787.982C188.625 787.982 189.209 786.691 190.107 784.345C196.954 790.557 204.075 796.237 211.434 801.354C202.813 806.28 191.992 826.691 185.931 838.01V837.775ZM303.838 815.137C289.874 826.867 282.017 827.864 265.045 825.987C251.062 823.846 237.549 818.062 225.308 808.978C219.172 804.873 213.08 800.552 207.034 796.017C201.511 791.853 196.213 786.985 190.601 783.055C197.942 763.908 202.971 743.392 205.507 722.235C208.785 723.818 243.897 736.428 250.138 738.774C250.811 738.774 250.452 739.302 259.432 722.176C274.339 744.17 292.523 755.9 312.908 769.096C318.79 772.791 324.672 776.545 330.868 779.947C323.83 794.069 314.626 806.131 303.838 815.371V815.137ZM357.18 776.955C350.624 787.982 345.73 785.636 335.134 780.064C322.113 773.26 309.586 764.756 297.193 756.604C284.934 748.773 273.68 738.505 263.832 726.164C258.983 719.713 251.53 711.326 252.787 701.649C253.416 696.781 256.963 679.42 257.277 678.834C258.175 674.142 260.914 672.558 265.494 674.142C265.494 674.494 360.188 751.149 362.972 752.792C364.768 761.061 361.221 770.328 357.18 777.19V776.955ZM293.781 538.367C295.455 535.411 296.956 532.293 298.271 529.042C309.406 540.185 325.66 540.772 339.13 541.593C362.343 542.649 367.731 540.127 373.748 540.831C376.307 541.124 375.454 541.182 377.968 544.35C374.152 547.458 361.445 561.358 360.008 565.698C359.987 565.772 359.983 565.852 359.996 565.929C360.009 566.005 360.038 566.076 360.081 566.131C360.123 566.187 360.177 566.226 360.236 566.242C360.295 566.259 360.356 566.253 360.412 566.226C363.645 565.464 376.307 550.977 379.315 546.226C381.911 549.081 384.989 551.091 388.295 552.091C391.753 553.088 400.598 552.091 400.014 545.053C400.987 544.659 401.877 543.98 402.619 543.069C403.36 542.157 403.932 541.036 404.292 539.792C404.651 538.547 404.788 537.212 404.693 535.888C404.597 534.564 404.272 533.285 403.741 532.15C405.267 529.863 405.537 522.942 402.169 521.241C401.496 519.893 401.047 522.239 398.173 523.118C397.682 523.214 397.183 523.214 396.691 523.118C406.929 512.209 427.583 487.928 450.572 460.128C449.449 491.858 446.082 534.027 437.371 561.475C417.343 571.531 395.947 576.103 374.511 574.906C349.861 573.733 309.81 561.827 293.781 538.367ZM427.448 776.252C422.554 781.12 417.48 774.433 413.709 769.917C409.937 765.401 404.729 757.249 404.729 750.152C404.729 744.698 480.789 622.999 482.136 621.592C486.087 617.486 486.626 616.665 490.802 622.53C493.765 626.929 502.925 646.752 502.88 651.855C502.88 672.676 430.726 773.026 427.448 776.252ZM455.061 799.125C454.98 795.421 454.573 791.741 453.849 788.158C452.005 785.611 449.906 783.401 447.608 781.589C443.477 777.249 439.571 772.615 435.665 767.923C454.523 742 479.577 706.517 494.439 676.547C514.015 713.086 514.374 732.088 520.84 775.196C526.048 809.975 530.943 844.227 533.816 879.476C528.653 881.587 497.627 900.707 494.439 903.229C478.814 873.904 460.449 834.022 455.061 799.125ZM527.53 915.78C529.281 914.49 535.881 909.211 537.633 908.39C538.082 908.39 538.576 908.977 538.261 909.504C535.564 913.461 531.983 916.21 528.024 917.364C527.875 917.393 527.722 917.356 527.591 917.258C527.46 917.16 527.357 917.008 527.3 916.825C527.243 916.643 527.235 916.44 527.277 916.251C527.318 916.061 527.408 915.895 527.53 915.78ZM529.865 925.223C533.14 923.049 536.497 921.091 539.922 919.358C540.596 919.358 541.225 920.296 540.641 920.941C537.514 923.656 534.05 925.64 530.404 926.806C529.82 927.041 529.102 925.457 529.82 925.047L529.865 925.223ZM542.527 933.375C539.691 936.731 536.501 939.536 533.053 941.703C532.334 941.997 531.706 940.706 532.29 940.061C535.301 937.099 538.467 934.414 541.763 932.026C542.302 931.615 542.886 932.612 542.527 933.375Z" fill="black" fill-opacity="0.8"/>
<path d="M782.068 222.596L787.546 224.883C786.962 219.044 784.718 213.705 781.26 209.927C782.399 209.264 783.47 208.417 784.448 207.405C785.515 209.024 786.773 210.41 788.175 211.511C788.579 211.511 789.432 212.097 789.252 210.631C787.799 208.725 786.096 207.176 784.223 206.057C783.819 206.057 780.721 208.168 780.003 208.578C778.496 207.083 776.871 205.805 775.154 204.766C775.154 203.828 775.378 199.605 775.154 198.608C776.129 198.105 777.015 197.347 777.758 196.379C780.542 193.505 774.076 197.904 774.031 197.963C773.791 199.901 773.686 201.864 773.717 203.828C770.989 202.334 768.12 201.328 765.186 200.837C765.41 200.25 766.667 192.626 765.68 191.629C765.68 191.335 763.076 188.168 761.504 186.233C760.337 186.585 764.602 191.687 765.186 192.098C764.598 194.849 764.281 197.687 764.243 200.543C761.926 200.29 759.594 200.507 757.328 201.189C756.834 195.324 752.255 194.092 748.348 196.79C748.348 196.79 742.646 171.922 741.344 166.761C741.03 165.647 740.895 165.823 741.075 166.761C741.928 171.805 747.316 196.907 747.585 197.259C747.133 197.581 746.723 197.997 746.373 198.491C741.452 189.285 734.676 182.038 726.796 177.553C722.037 175.089 721.094 175.031 725.808 178.315C733.603 183.707 740.441 191.18 745.879 200.25C744.083 204.414 744.442 212.332 747.899 213.857C747.461 216.318 747.25 218.838 747.271 221.364C745.329 220.866 743.331 220.866 741.389 221.364C741.119 220.66 737.348 213.857 737.662 215.499C737.662 216.496 740.626 222.244 741.793 222.42C743.626 222.691 745.471 222.808 747.316 222.772C747.504 226.737 748.001 230.667 748.797 234.502C747.115 234.022 745.4 233.767 743.679 233.739C742.756 234.651 741.899 235.672 741.119 236.789C738.695 240.601 742.017 239.252 744.128 235.147C751.895 237.2 747.54 233.798 751.222 242.244C750.076 244.106 749.026 246.065 748.079 248.109C748.404 250.41 749.109 252.591 750.144 254.501C750.638 256.261 752.299 255.498 750.908 252.331C750.378 251.036 749.746 249.817 749.022 248.695C750.312 247.454 751.333 245.797 751.985 243.886C753.398 246.858 755.389 249.288 757.755 250.926C760.122 252.565 762.779 253.353 765.455 253.211L764.422 248.402C767.089 249.489 769.939 249.55 772.632 248.579C775.324 247.607 777.746 245.643 779.607 242.921C781.468 240.199 782.69 236.836 783.126 233.231C783.562 229.627 783.195 225.935 782.068 222.596ZM748.214 212.508C747.318 211.631 746.611 210.466 746.164 209.125C745.716 207.785 745.543 206.315 745.66 204.861C745.778 203.407 746.183 202.017 746.835 200.829C747.487 199.64 748.364 198.693 749.381 198.08C750.608 197.528 751.901 197.27 753.198 197.318C754.027 197.633 754.778 198.227 755.377 199.04C755.976 199.853 756.401 200.856 756.61 201.951C754.651 202.667 752.859 204.006 751.394 205.849C749.929 207.691 748.836 209.979 748.214 212.508ZM756.61 211.687L763.076 214.443C761.839 216.545 760.126 218.084 758.181 218.842L756.61 211.687ZM758.406 219.957C760.81 219.303 762.968 217.583 764.512 215.089L769.002 217.083C768.411 219.78 767.213 222.184 765.564 223.982C763.915 225.781 761.891 226.892 759.753 227.171L758.406 219.957ZM760.337 228.754C762.653 228.447 764.847 227.245 766.638 225.302C768.429 223.359 769.737 220.763 770.394 217.845L776.815 220.602C776.5 225.41 774.895 229.919 772.282 233.332C769.67 236.744 766.218 238.841 762.537 239.252L760.337 228.754ZM778.297 242.302C776.505 244.645 774.257 246.303 771.796 247.099C769.335 247.895 766.754 247.798 764.333 246.818L762.851 240.015C765.987 239.996 769.041 238.705 771.591 236.32C774.141 233.935 776.061 230.574 777.084 226.701C777.734 224.839 778.172 222.863 778.386 220.836L780.227 221.599C781.509 224.92 782.002 228.665 781.642 232.354C781.282 236.043 780.086 239.508 778.207 242.302H778.297ZM210.671 682.47L211.389 686.752C213.705 684.538 215.306 681.276 215.879 677.603C216.442 678.223 217.079 678.718 217.765 679.069C216.283 682.822 218.753 687.808 218.843 678.6C218.483 677.133 218.214 677.544 216.104 675.55C216.215 674.146 216.215 672.731 216.104 671.327C216.822 670.975 215.789 671.327 218.798 669.45C219.92 671.327 225.263 670.975 218.798 667.925C217.752 668.272 216.752 668.826 215.834 669.568C215.577 667.248 215.094 664.982 214.397 662.823C215.295 662.353 217.585 662.178 218.663 659.89C218.663 659.128 219.875 656.489 219.292 654.612C218.259 655.55 218.932 655.843 217.9 659.597C216.501 659.912 215.169 660.612 213.993 661.65C213.354 660.033 212.554 658.535 211.614 657.192C212.1 656.644 212.473 655.943 212.697 655.156C212.921 654.369 212.989 653.52 212.895 652.69C212.801 651.859 212.548 651.073 212.159 650.404C211.77 649.735 211.258 649.205 210.671 648.864C214.083 643.41 220.728 635.492 223.422 630.155C218.312 635.33 213.779 641.41 209.952 648.219H209.324C211.659 642.354 213.41 628.688 210.805 623.293C211.321 631.697 210.417 640.146 208.156 648.043C205.777 648.043 202.274 651.269 202.903 654.318C198.054 656.195 201.421 657.837 197.964 651.797C198.907 650.624 200.344 642.588 197.246 651.445C196.752 652.676 197.829 654.494 198.817 656.958C197.335 658.291 195.952 659.803 194.686 661.474C194.276 660.152 193.811 658.86 193.294 657.603C193.294 657.603 187.637 655.433 190.331 658.013C191.042 658.356 191.78 658.593 192.531 658.717C192.867 660.089 193.287 661.423 193.788 662.705C193.132 663.676 192.56 664.738 192.082 665.873C190.759 665.407 189.365 665.407 188.041 665.873C186.919 670.682 184.808 669.274 186.559 670.858C187.522 669.908 188.243 668.599 188.625 667.104C189.512 667.62 190.496 667.784 191.454 667.573C190.68 669.59 190.323 671.836 190.417 674.089C190.512 676.342 191.055 678.523 191.992 680.418L193.609 678.248C195.046 687.514 206.54 691.033 210.671 682.47ZM211.03 651.269C211.42 652.011 211.629 652.89 211.629 653.791C211.629 654.691 211.42 655.57 211.03 656.313C210.111 655.168 208.996 654.327 207.777 653.858C206.559 653.388 205.273 653.305 204.026 653.615C204.168 652.642 204.519 651.742 205.039 651.021C205.558 650.299 206.224 649.785 206.958 649.539C207.692 649.293 208.465 649.325 209.186 649.631C209.907 649.938 210.547 650.505 211.03 651.269ZM207.618 664.993C206.386 664.703 205.229 664.018 204.25 662.999L206.72 659.656L207.618 664.993ZM203.621 663.82C204.809 665.474 206.393 666.549 208.111 666.87L208.695 670.33C207.373 670.799 205.973 670.731 204.681 670.134C203.389 669.536 202.268 668.438 201.466 666.987L203.621 663.82ZM200.389 668.218C201.336 669.876 202.644 671.122 204.142 671.792C205.641 672.462 207.259 672.525 208.785 671.972L209.638 677.133C207.485 678.469 205.041 678.772 202.734 677.989C200.427 677.206 198.404 675.387 197.021 672.852L200.389 668.218ZM200.703 685.344C199.114 684.812 197.668 683.722 196.52 682.191C195.372 680.661 194.567 678.75 194.192 676.664L196.393 673.614C197.762 676.484 199.885 678.603 202.365 679.574C204.844 680.546 207.51 680.304 209.863 678.893V679.89C208.904 681.802 207.555 683.327 205.968 684.29C204.381 685.254 202.62 685.619 200.883 685.344H200.703ZM153.468 287.815C153.365 289.439 153.624 291.067 154.214 292.503C154.803 293.939 155.698 295.122 156.791 295.908C155.455 297.916 154.405 300.22 153.693 302.712C149.831 329.808 162.673 334.793 162.673 334.793L163.167 313.621C164.334 326.582 172.416 340.6 179.241 324.236C189.164 330.101 190.915 313.269 185.212 305.351C186.919 304.656 188.452 303.377 189.652 301.648C190.852 299.918 191.676 297.8 192.038 295.513C192.4 293.227 192.287 290.856 191.71 288.646C191.134 286.437 190.115 284.469 188.76 282.947C194.507 278.489 196.797 261.774 186.559 263.827C182.069 239.076 167.567 265 164.828 279.252L169.318 244.062C169.318 244.062 155.848 245.645 155.489 273.387C155.834 276.065 156.533 278.645 157.554 281.011C156.787 281.26 156.075 281.74 155.474 282.412C154.874 283.084 154.402 283.93 154.097 284.882C142.795 279.46 133.278 269.1 127.157 255.557C131.422 271.451 142.198 280.425 153.693 286.642C144.443 285.938 129.896 285.293 123.969 294.735C133.128 287.111 142.737 287.228 153.468 287.815ZM187.323 313.445C189.074 321.011 184.988 325.878 179.645 323.005C181.082 312.33 170.351 296.964 165.097 291.627C173.808 294.501 183.551 301.187 187.323 313.445ZM171.249 292.917C169.232 291.946 167.16 291.181 165.052 290.63C167.175 290.838 169.306 290.838 171.428 290.63C171.338 291.158 171.742 291.216 171.249 292.917ZM172.326 290.688C173.833 290.543 175.332 290.289 176.816 289.926C177.012 290.902 177.011 291.928 176.815 292.904C176.618 293.88 176.232 294.774 175.694 295.498C174.5 294.68 173.271 293.955 172.012 293.328C172.244 292.967 172.395 292.531 172.451 292.065C172.506 291.6 172.463 291.124 172.326 290.688ZM177.714 289.691C179.497 289.201 181.241 288.494 182.923 287.58C183.821 292.272 184.808 296.671 181.306 300.014C179.881 298.552 178.381 297.22 176.816 296.026C177.501 295.266 177.964 294.221 178.127 293.067C178.291 291.913 178.145 290.721 177.714 289.691ZM191.184 292.683C191.103 295.249 190.447 297.729 189.297 299.813C188.148 301.898 186.556 303.497 184.719 304.413C183.853 303.047 182.89 301.79 181.845 300.659C185.257 298.958 185.527 291.51 183.686 287.111C185.279 286.211 186.787 285.069 188.176 283.709C189.825 286.261 190.884 289.374 191.229 292.683H191.184ZM183.551 285.175C177.973 288.723 171.781 290.3 165.591 289.75C171.832 286.524 185.392 275.674 186.694 264.941C198.772 265.352 190.735 282.36 183.596 285.175H183.551ZM163.885 288.87C175.828 227.64 204.295 268.108 164.289 289.691H163.885V288.87ZM163.885 291.216C165.052 291.686 186.335 319.075 175.334 328.694C162.673 336.025 163.66 298.02 163.885 291.216ZM158.317 281.891C159.602 284.525 161.228 286.847 163.122 288.753C163.067 288.982 163.067 289.228 163.122 289.457C161.171 290.75 159.396 292.454 157.868 294.501C153.333 293.68 153.738 283.064 158.317 281.891ZM713.91 240.777C713.89 236.307 713.544 231.849 712.877 227.464C712.877 226.701 711.89 226.877 711.89 227.464C711.812 231.86 712.038 236.257 712.563 240.601C712.787 241.305 713.91 241.774 713.91 240.777ZM696.938 269.809C696.881 265.319 696.52 260.844 695.86 256.437C695.86 255.674 694.872 255.909 694.872 256.437C694.818 260.852 695.043 265.266 695.546 269.633C695.95 270.63 696.758 270.63 696.938 269.809ZM843.357 268.636C843.298 264.146 842.937 259.672 842.279 255.264C842.279 254.56 841.291 254.736 841.291 255.264C841.229 259.682 841.469 264.098 842.01 268.46C842.234 269.399 843.222 269.633 843.357 268.636ZM853.1 268.636C853.041 264.146 852.68 259.672 852.022 255.264C852.022 254.56 851.035 254.736 851.035 255.264C850.957 259.68 851.183 264.096 851.708 268.46C852.022 269.399 853.1 269.633 853.1 268.636ZM813.319 259.78C813.264 264.195 813.489 268.609 813.992 272.976C814.217 273.739 815.204 273.915 815.384 272.976C815.329 268.486 814.969 264.011 814.306 259.604C814.217 258.9 813.319 258.9 813.319 259.78ZM813.588 243.358C813.556 238.866 813.196 234.388 812.51 229.986C812.51 229.223 811.523 229.399 811.523 229.986C811.462 234.404 811.702 238.82 812.241 243.182C812.421 244.062 813.408 244.296 813.588 243.358ZM800.028 243.358C799.997 238.866 799.636 234.388 798.951 229.986C798.951 229.223 797.963 229.399 797.963 229.986C797.902 234.404 798.142 238.82 798.681 243.182C798.906 244.062 799.893 244.296 800.028 243.358ZM852.741 238.255C852.706 233.783 852.345 229.325 851.663 224.942C851.663 224.179 850.675 224.355 850.675 224.942C850.613 229.36 850.853 233.776 851.394 238.138C851.618 239.018 852.606 239.252 852.741 238.255ZM842.504 208.578C842.469 204.106 842.108 199.648 841.426 195.265C841.426 194.503 840.438 194.678 840.438 195.265C840.375 199.663 840.616 204.06 841.157 208.403C841.381 209.341 842.369 209.576 842.504 208.578ZM827.103 195.441C827.003 199.838 827.229 204.238 827.776 208.578C827.776 209.341 828.989 209.576 829.123 208.578C829.084 204.109 828.739 199.654 828.091 195.265C828.082 195.18 828.06 195.099 828.027 195.025C827.994 194.951 827.951 194.886 827.898 194.835C827.846 194.783 827.787 194.745 827.724 194.723C827.66 194.701 827.594 194.696 827.529 194.708C827.465 194.719 827.402 194.747 827.346 194.791C827.289 194.834 827.24 194.891 827.2 194.959C827.16 195.027 827.131 195.105 827.115 195.187C827.098 195.27 827.094 195.356 827.103 195.441ZM798.142 212.449C798.1 207.961 797.755 203.486 797.11 199.077C797.11 198.315 796.122 198.549 796.122 199.077C796.022 203.494 796.248 207.913 796.795 212.273C797.02 213.212 798.008 213.388 798.142 212.449ZM813.139 178.374C813.1 173.905 812.754 169.449 812.106 165.06C812.106 164.889 812.054 164.725 811.962 164.604C811.869 164.483 811.743 164.415 811.612 164.415C811.481 164.415 811.356 164.483 811.263 164.604C811.171 164.725 811.118 164.889 811.118 165.06C811.041 169.457 811.267 173.854 811.792 178.198C812.017 179.136 813.004 179.371 813.139 178.374ZM782.472 178.374C782.371 173.898 781.965 169.442 781.26 165.06C781.26 164.298 780.272 164.474 780.272 165.06C780.217 169.456 780.443 173.851 780.946 178.198C781.26 179.136 782.293 179.371 782.472 178.374ZM635.784 328.811C635.721 333.229 635.962 337.645 636.502 342.007C636.727 342.77 637.715 343.004 637.849 342.007C637.815 337.535 637.454 333.077 636.772 328.694C636.682 327.931 635.784 328.107 635.784 328.811ZM663.667 325.937C663.604 330.355 663.845 334.771 664.385 339.133C664.61 339.896 665.598 340.13 665.732 339.133C665.631 334.638 665.225 330.163 664.52 325.761C664.46 325.685 664.387 325.628 664.307 325.594C664.227 325.561 664.143 325.553 664.06 325.57C663.977 325.587 663.898 325.629 663.83 325.693C663.762 325.756 663.706 325.84 663.667 325.937ZM681.088 324.94C681.026 329.358 681.266 333.774 681.807 338.136C682.031 338.899 683.019 339.075 683.153 338.136C683.119 333.644 682.758 329.167 682.076 324.764C681.986 324.002 681.088 324.236 681.088 324.94ZM662.634 291.92C662.634 291.158 661.646 291.392 661.646 291.92C661.584 296.338 661.824 300.754 662.365 305.116C662.365 305.879 663.577 306.055 663.712 305.116C663.669 300.683 663.308 296.265 662.634 291.92ZM650.691 305.292C650.672 300.802 650.326 296.325 649.658 291.92C649.658 291.158 648.67 291.392 648.67 291.92C648.593 296.336 648.818 300.753 649.344 305.116C649.568 305.82 650.556 306.231 650.691 305.292ZM697.656 302.418C697.707 302.598 697.799 302.753 697.919 302.862C698.04 302.972 698.183 303.03 698.33 303.03C698.476 303.03 698.62 302.972 698.74 302.862C698.86 302.753 698.952 302.598 699.003 302.418C698.969 297.946 698.608 293.488 697.926 289.105C697.926 288.342 696.938 288.518 696.938 289.105C696.869 293.562 697.109 298.018 697.656 302.418ZM737.438 302.418C737.396 297.949 737.051 293.494 736.405 289.105C736.405 288.934 736.353 288.77 736.26 288.649C736.168 288.528 736.042 288.46 735.911 288.46C735.78 288.46 735.654 288.528 735.562 288.649C735.469 288.77 735.417 288.934 735.417 289.105C735.319 293.502 735.545 297.902 736.091 302.243C736.36 303.181 737.303 303.416 737.438 302.418ZM737.033 321.069C736.934 325.486 737.159 329.905 737.707 334.265C737.707 335.028 738.919 335.204 739.054 334.265C739.015 329.777 738.669 325.302 738.021 320.893C737.887 320.131 737.033 320.365 737.033 321.069ZM715.841 324.178C715.763 328.594 715.989 333.01 716.514 337.374C716.514 338.136 717.727 338.312 717.861 337.374C717.822 332.885 717.476 328.41 716.828 324.002C716.739 323.415 715.841 323.415 715.841 324.178ZM774.211 321.069C774.133 325.485 774.359 329.902 774.884 334.265C774.884 335.028 776.097 335.204 776.231 334.265C776.192 329.777 775.846 325.302 775.198 320.893C775.064 320.131 774.211 320.365 774.211 321.069ZM774.39 302.418C774.349 297.949 774.003 293.494 773.358 289.105C773.358 288.342 772.37 288.518 772.37 289.105C772.294 293.502 772.52 297.898 773.043 302.243C773.268 303.181 774.256 303.416 774.39 302.418ZM798.412 286.114C798.335 290.53 798.56 294.946 799.085 299.31C799.31 300.072 800.298 300.307 800.477 299.31C800.418 294.82 800.057 290.345 799.4 285.938C799.22 285.234 798.412 285.41 798.412 286.114ZM815.519 287.521C815.466 291.917 815.691 296.312 816.192 300.659C816.417 301.421 817.405 301.656 817.539 300.659C817.519 296.188 817.174 291.73 816.507 287.345C816.417 286.583 815.519 286.759 815.519 287.521ZM801.465 319.662C801.402 324.06 801.643 328.457 802.183 332.799C802.183 333.562 803.396 333.796 803.53 332.799C803.474 328.328 803.113 323.873 802.453 319.486C802.363 318.723 801.465 318.899 801.465 319.662ZM829.528 318.489C829.467 322.906 829.707 327.323 830.246 331.685C830.47 332.447 831.458 332.623 831.593 331.685C831.561 327.193 831.2 322.715 830.515 318.313C830.65 317.55 829.528 317.55 829.528 318.489ZM843.851 317.55C843.775 321.947 844.001 326.344 844.524 330.688C844.524 331.45 845.736 331.685 845.871 330.688C845.851 326.217 845.506 321.759 844.838 317.374C844.749 316.788 843.851 316.964 843.851 317.55ZM844.12 298.841C844.081 294.352 843.735 289.877 843.087 285.469C843.054 285.323 842.986 285.196 842.893 285.105C842.8 285.015 842.687 284.966 842.571 284.966C842.455 284.966 842.342 285.015 842.249 285.105C842.156 285.196 842.088 285.323 842.055 285.469C841.994 289.887 842.234 294.303 842.773 298.665C843.087 299.545 844.12 299.955 844.12 298.841ZM852.606 974.782C873.889 951.674 875.056 912.848 875.55 878.889C871.06 877.775 844.973 893.435 843.042 893.493C850.151 882.592 854.991 869.483 857.096 855.429C859.7 844.696 867.737 784.639 860.688 792.087C841.875 807.336 825.262 821.999 806.808 839.007C806.808 833.436 804.159 779.654 797.828 762.058C793.652 758.247 789.127 755.134 784.358 752.792C784.852 751.795 796.795 738.247 794.999 738.775C792.298 720.458 788.836 702.348 784.628 684.523C754.006 718.833 740.85 780.885 736.36 833.67C734.878 827.805 725.853 784.639 718.131 774.316C702.64 807.219 697.432 851.324 700.53 889.857C690.921 883.992 620.204 892.907 638.747 902.995C656.483 923.463 674.667 941.762 686.656 967.51C681.088 967.51 660.075 966.982 643.058 967.158C636.15 966.592 629.222 966.592 622.314 967.158C644.51 969.429 666.792 969.939 689.035 968.682C677.451 941.352 654.328 918.771 636.592 898.713C657.307 890.352 679.134 887.755 700.664 891.089C701.293 892.379 700.664 901.118 702.685 900.062C698.391 857.65 703.862 814.528 718.4 776.193C725.539 791.032 736.989 838.949 739.009 861.94C741.389 856.661 737.258 844.344 736.764 836.779C743.948 783.466 750.728 734.904 780.946 689.45C786.289 682.646 785.436 692.793 788.848 706.517C791.019 717.047 792.772 727.716 794.101 738.481C794.595 738.481 787.681 746.575 784.134 750.798C779.644 756.076 798.232 760.885 797.828 765.578C801.84 789.958 804.57 814.668 806 839.535C797.693 848.215 784.583 860.473 780.991 871.206C803.441 838.831 834.511 815.841 862.08 791.97C863.023 828.216 857.59 873.376 840.797 894.607C806.18 918.068 876.448 877.892 874.158 879.886H874.427C874.697 915.076 869.354 960.002 850.406 974.723C849.777 975.251 799.13 975.72 816.956 976.893C829.303 976.483 869.354 976.014 869.668 974.372C865.313 972.436 857.994 974.841 852.606 974.782Z" fill="black" fill-opacity="0.8"/>
<path d="M768.374 971.438C784.852 887.804 807.526 872.379 836.981 834.256C799.759 872.085 773.672 920.648 768.374 971.438ZM767.79 755.489C765.859 788.216 757.014 820.004 757.912 853.845C757.328 885.106 763.884 914.783 764.018 944.049C766.174 913.492 757.643 882.056 758.99 850.971C757.687 819.359 768.553 784.404 767.79 755.489ZM717.188 838.713C720.42 860.707 736.989 942.759 744.128 961.878C746.732 966.864 741.568 949.327 740.625 944.283C732.499 912.085 721.767 852.555 717.188 838.713ZM668.741 905.926C685.264 923.932 710.587 945.75 723.025 970.969C711.216 943.462 688.092 923.815 668.741 905.926ZM434.003 916.894C422.823 900.941 426.191 895.956 417.48 913.199C417.076 911.85 383.85 890.443 390.54 900.355C425.203 942.465 400.418 908.038 392.336 900.355C426.819 914.665 411.015 922.993 424.305 903.58C426.999 905.047 432.881 922.407 434.497 916.953C435.71 914.255 436.877 911.088 438.314 912.026C439.706 916.249 442.804 914.782 446.261 915.017C450.751 914.196 458.384 916.894 460.764 914.313C453.846 914.619 446.921 914.148 440.065 912.906C437.461 901.879 436.114 914.372 434.003 916.894ZM182.204 929.738C188.804 911.439 220.1 846.749 223.871 833.435C208.875 860.062 187.098 906.923 182.204 929.738ZM161.64 878.537C152.121 847.628 149.921 808.157 141.48 779.946C148.17 811.793 150.864 849.681 161.64 878.537ZM143.276 909.915C127.785 891.557 110.948 872.906 94.7839 855.018C109.844 874.918 126.056 893.271 143.276 909.915ZM192.621 496.784C192.621 495.963 74.4891 493.851 54.1494 491.916C53.7453 491.916 53.3861 492.444 53.3412 492.972C52.9371 512.619 54.4637 650.447 54.9127 650.447C77.6321 650.916 168.914 648.16 191.588 645.931C192.352 645.99 192.396 653.907 192.621 496.784ZM190.645 644.171C168.195 644.582 78.8893 646.048 56.4393 649.157C54.778 602.237 53.7453 497.312 54.9127 493.91C55.4964 494.438 188.266 499.13 190.96 498.426C190.825 546.988 190.556 595.609 190.645 644.171ZM213.499 527.575C213.458 523.106 213.113 518.651 212.467 514.262C212.467 514.091 212.415 513.926 212.322 513.805C212.23 513.684 212.104 513.616 211.973 513.616C211.842 513.616 211.716 513.684 211.624 513.805C211.531 513.926 211.479 514.091 211.479 514.262C211.379 518.678 211.605 523.097 212.152 527.458C212.377 528.338 213.365 528.69 213.499 527.575ZM68.4276 686.341C68.3504 690.757 68.5758 695.173 69.1011 699.537C69.1011 700.299 70.3134 700.475 70.493 699.537C70.4383 695.047 70.0777 690.572 69.4154 686.165C69.3256 685.402 68.4276 685.578 68.4276 686.341ZM91.5511 686.341C91.4515 690.758 91.677 695.177 92.2246 699.537C92.4491 700.299 93.4369 700.475 93.5716 699.537C93.5324 695.048 93.1868 690.573 92.5389 686.165C92.4491 685.402 91.5511 685.578 91.5511 686.341ZM97.2534 685.461C97.1684 689.86 97.409 694.26 97.9718 698.599C97.9718 699.361 99.1841 699.596 99.3188 698.599C99.2843 694.126 98.9234 689.668 98.2412 685.285C98.1514 684.523 97.2534 684.699 97.2534 685.461ZM260.914 621.005C260.882 616.513 260.521 612.035 259.836 607.632C259.836 606.87 258.848 607.105 258.848 607.632C258.788 612.05 259.028 616.467 259.567 620.829C259.791 621.767 260.779 621.943 260.914 621.005ZM270.927 598.6C270.892 594.128 270.531 589.67 269.849 585.287C269.849 584.524 268.861 584.7 268.861 585.287C268.798 589.685 269.039 594.082 269.58 598.424C269.804 599.363 270.792 599.597 270.927 598.6ZM223.243 527.047C230.157 528.69 230.517 518.133 225.802 513.734C222.794 511.036 219.741 517.37 219.381 519.599C219.168 521.251 219.45 522.947 220.169 524.334C220.888 525.722 221.989 526.693 223.243 527.047ZM220.863 518.602C223.512 510.977 227.867 518.602 227.374 521.652C227.256 522.26 227.044 522.831 226.75 523.328C226.456 523.825 226.087 524.237 225.666 524.54C225.245 524.843 224.78 525.029 224.302 525.087C223.823 525.145 223.34 525.073 222.884 524.877C222.431 524.646 222.019 524.298 221.672 523.854C221.324 523.411 221.048 522.882 220.859 522.297C220.671 521.712 220.574 521.083 220.575 520.449C220.576 519.814 220.674 519.186 220.863 518.602ZM269.4 620.77C270.055 620.912 270.725 620.884 271.371 620.686C272.017 620.489 272.627 620.126 273.166 619.619C273.704 619.112 274.161 618.47 274.508 617.732C274.856 616.993 275.088 616.172 275.192 615.316C275.461 612.207 269.175 599.128 265.583 613.028C265.419 613.866 265.388 614.738 265.494 615.592C265.599 616.445 265.839 617.261 266.197 617.988C266.556 618.715 267.025 619.337 267.576 619.816C268.127 620.295 268.748 620.619 269.4 620.77ZM267.02 612.266C269.175 605.228 274.07 612.266 273.531 615.316C273.426 615.934 273.221 616.516 272.93 617.023C272.639 617.529 272.269 617.949 271.844 618.254C271.419 618.56 270.95 618.743 270.466 618.793C269.983 618.842 269.497 618.756 269.041 618.541C268.167 618.016 267.486 617.066 267.142 615.893C266.798 614.721 266.819 613.419 267.2 612.266H267.02ZM77.2729 690.681C77.1084 691.522 77.0794 692.399 77.1878 693.256C77.2962 694.113 77.5396 694.931 77.9025 695.659C78.2655 696.387 78.7401 697.008 79.2964 697.484C79.8527 697.96 80.4785 698.279 81.1343 698.423C81.7865 698.565 82.4537 698.535 83.0972 698.337C83.7407 698.139 84.3475 697.775 84.8824 697.268C85.4173 696.76 85.8695 696.118 86.2127 695.38C86.5559 694.642 86.7833 693.822 86.8815 692.968C87.1958 689.801 81.2241 678.599 77.2729 690.681ZM85.31 692.91C85.1984 693.523 84.9897 694.099 84.6973 694.601C84.405 695.103 84.0354 695.519 83.6125 695.823C83.1895 696.126 82.7225 696.311 82.2416 696.365C81.7606 696.419 81.2764 696.341 80.82 696.135C80.3598 695.916 79.9388 695.577 79.5828 695.137C79.2268 694.698 78.9434 694.168 78.7499 693.58C78.5565 692.992 78.4571 692.359 78.4579 691.719C78.4587 691.08 78.5597 690.447 78.7546 689.86C81.2241 683.35 85.759 689.742 85.31 692.91Z" fill="black" fill-opacity="0.8"/>
<path d="M171.294 522.825C154.725 522.532 88.3183 519.951 71.9747 521.769V522.18C88.2734 524.584 154.725 524.408 171.294 524.702C171.484 524.702 171.667 524.603 171.802 524.427C171.936 524.251 172.012 524.012 172.012 523.763C172.012 523.514 171.936 523.276 171.802 523.1C171.667 522.924 171.484 522.825 171.294 522.825ZM172.91 549.921C156.342 549.628 89.8898 547.047 73.5911 548.924V549.276C89.8449 551.681 156.342 551.505 172.91 551.798C173.1 551.798 173.283 551.699 173.418 551.523C173.553 551.347 173.628 551.108 173.628 550.86C173.628 550.611 173.553 550.372 173.418 550.196C173.283 550.02 173.1 549.921 172.91 549.921ZM174.257 580.712C157.734 580.419 91.2817 577.839 74.9381 579.715V580.067C91.2368 582.531 157.734 582.296 174.257 582.589C174.447 582.589 174.63 582.49 174.765 582.314C174.9 582.138 174.975 581.9 174.975 581.651C174.975 581.402 174.9 581.163 174.765 580.987C174.63 580.811 174.447 580.712 174.257 580.712ZM174.257 611.562C157.734 611.562 91.2817 608.688 74.9381 610.565V610.917C91.1919 613.322 157.734 613.146 174.257 613.439C174.447 613.439 174.63 613.34 174.765 613.164C174.9 612.988 174.975 612.75 174.975 612.501C174.975 612.252 174.9 612.013 174.765 611.837C174.63 611.661 174.447 611.562 174.257 611.562ZM414.607 269.105C414.541 269.07 414.469 269.065 414.402 269.09C414.334 269.115 414.274 269.169 414.233 269.243C414.192 269.318 414.171 269.408 414.173 269.5C414.176 269.592 414.202 269.68 414.247 269.75C416.34 272.65 418.641 275.282 421.117 277.609C421.476 277.609 421.925 277.609 421.656 276.905C419.505 274.013 417.144 271.401 414.607 269.105ZM421.072 231.686C421.072 231.686 421.521 231.686 421.387 231.276C419.588 228.545 417.52 226.138 415.235 224.12C414.921 224.12 414.607 224.12 414.831 224.766C416.676 227.412 418.773 229.738 421.072 231.686ZM440.02 235.44C441.503 235.129 442.924 234.431 444.196 233.387C444.465 233.387 444.196 232.566 444.196 232.625C442.617 232.805 441.086 233.425 439.706 234.443C439.391 234.795 439.706 235.44 440.02 235.44ZM417.031 237.258C416.616 239.463 416.509 241.748 416.717 244.003C416.717 244.413 417.256 244.589 417.435 244.003C417.78 241.738 417.78 239.406 417.435 237.141C417.369 237.093 417.291 237.079 417.216 237.1C417.142 237.122 417.076 237.178 417.031 237.258ZM442.624 241.774C442.203 243.69 442.203 245.723 442.624 247.639C442.654 247.688 442.691 247.727 442.734 247.754C442.777 247.782 442.824 247.796 442.871 247.796C442.919 247.796 442.966 247.782 443.008 247.754C443.051 247.727 443.089 247.688 443.118 247.639C443.54 245.723 443.54 243.69 443.118 241.774C443.047 241.703 442.961 241.664 442.871 241.664C442.782 241.664 442.695 241.703 442.624 241.774ZM430.726 246.056C430.726 248.167 432.836 261.539 429.334 259.78C428.75 259.78 428.436 260.835 429.064 261.07C429.693 261.305 432.387 261.715 432.746 259.486C432.529 254.926 431.957 250.406 431.04 245.997C431.04 245.997 430.726 245.762 430.726 246.056ZM267.29 84.0056C270.074 103.829 279.996 81.0145 281.613 72.6275C286.103 87.1141 299.932 85.8238 302.042 71.6891C305.724 75.7946 317.937 76.909 315.512 66.1174C320.002 65.2963 321.215 56.968 318.97 51.1616H321.664C320.61 47.1602 318.65 43.6715 316.044 41.1578C313.438 38.644 310.309 37.2239 307.071 37.0856C302.175 36.1788 297.193 37.6387 293.062 41.1911C292.726 39.8677 292.138 38.678 291.352 37.7339C290.567 36.7899 289.61 36.1227 288.572 35.7953C288.596 35.1897 288.596 34.5828 288.572 33.9772C288.303 27.2324 288.123 4.18297 298.944 -3.38288C301.593 -4.79048 300.83 -5.14238 298.271 -3.73478C288.078 2.13022 287.001 21.4261 287.719 34.7396C285.848 25.343 282.815 16.4084 278.739 8.28847C277.033 5.29732 272.812 0.312063 272.543 1.13316C272.274 1.95426 276.584 5.76652 278.111 8.69902C281.865 17.2244 284.62 26.4372 286.282 36.0299C284.998 36.5894 283.821 37.5019 282.83 38.7058C281.838 39.9097 281.056 41.3771 280.535 43.0093C271.959 38.9038 256.199 46.0004 256.02 63.0676L270.118 57.9064C262.171 64.4752 252.248 87.7592 267.29 84.0056ZM280.445 73.8592C278.694 80.7799 270.972 99.7238 267.694 83.8297C274.788 80.5453 279.547 71.2786 283.319 62.4811C283.274 62.7743 280.67 73.0967 280.445 73.8592ZM293.915 61.2494C294.926 63.2172 296.052 65.08 297.283 66.8212C293.871 73.6246 287.18 71.6305 282.96 67.5836C283.499 65.6482 284.037 63.6541 284.531 61.7186C285.154 62.5665 285.908 63.2324 286.742 63.6728C287.576 64.1131 288.472 64.3179 289.371 64.2736C290.27 64.2293 291.152 63.9369 291.959 63.4156C292.765 62.8944 293.478 62.1562 294.05 61.2494H293.915ZM284.935 60.8389C285.325 59.0679 285.625 57.2654 285.833 55.4431C286.611 56.4661 287.649 57.0795 288.751 57.166C289.852 57.2526 290.94 56.8063 291.805 55.9123C292.357 57.3829 292.972 58.8123 293.646 60.1937C293.1 61.3869 292.264 62.3068 291.271 62.8065C290.278 63.3062 289.186 63.3568 288.168 62.9503C287.021 62.3585 285.91 61.6526 284.846 60.8389H284.935ZM289.695 81.3664C287.945 80.5615 286.353 79.2606 285.033 77.557C283.713 75.8535 282.699 73.7895 282.062 71.5132C282.286 70.8094 282.556 69.7537 283.05 68.1115C283.966 69.5933 285.131 70.7804 286.454 71.581C287.777 72.3817 289.223 72.7745 290.681 72.7291C292.139 72.6838 293.57 72.2015 294.862 71.3195C296.155 70.4375 297.275 69.1794 298.136 67.6423C299.075 68.8149 300.081 69.8932 301.144 70.868C300.991 72.5933 300.559 74.2563 299.877 75.7469C299.194 77.2375 298.277 78.5216 297.186 79.5143C296.095 80.5069 294.855 81.1854 293.548 81.5047C292.241 81.824 290.897 81.7768 289.605 81.3664H289.695ZM302.716 70.4575C295.846 66.5866 290.638 51.1616 290.593 51.103H290.862C293.7 55.6961 297.263 59.4359 301.308 62.0674C305.352 64.699 309.784 66.1604 314.3 66.352C316.994 77.7301 304.647 71.5718 302.626 70.4575H302.716ZM317.174 51.103C324.717 69.9296 303.704 68.2874 291.356 51.103H317.174ZM286.776 37.2029C289.695 36.7337 291.266 39.0797 292.075 42.0709C290.011 44.4085 288.617 47.5937 288.123 51.103H290.054L291.177 54.5047C289.785 56.8507 287.585 56.1469 285.833 54.8566C286.103 53.8595 286.327 52.8038 286.597 51.7481L288.123 51.2203C286.778 47.6676 284.476 44.8895 281.658 43.4198C282.87 40.546 283.858 37.6721 286.776 37.2029ZM285.429 52.1587C282.062 63.8887 275.057 83.3018 264.057 83.0672C254.179 80.8385 267.873 59.9005 271.6 57.2612L285.429 52.1587ZM651.05 326.347C649.907 326.033 648.718 326.188 647.646 326.791C646.573 327.394 645.67 328.415 645.06 329.716C644.449 331.016 644.162 332.531 644.237 334.053C644.312 335.576 644.746 337.03 645.479 338.217C646.212 339.405 647.208 340.267 648.331 340.685C649.454 341.103 650.649 341.057 651.751 340.554C652.853 340.05 653.809 339.113 654.487 337.872C655.166 336.63 655.533 335.145 655.54 333.62C655.655 331.885 655.252 330.159 654.415 328.804C653.578 327.448 652.372 326.568 651.05 326.347ZM651.05 338.898C650.216 339.066 649.363 338.896 648.605 338.412C647.847 337.927 647.221 337.151 646.811 336.188C646.401 335.224 646.227 334.12 646.312 333.024C646.396 331.927 646.736 330.891 647.285 330.054C647.834 329.217 648.566 328.62 649.383 328.343C650.2 328.066 651.062 328.122 651.853 328.504C652.644 328.886 653.327 329.576 653.81 330.48C654.293 331.384 654.552 332.459 654.552 333.561C654.627 334.875 654.3 336.173 653.644 337.173C652.988 338.173 652.055 338.794 651.05 338.898ZM699.677 323.415C698.534 323.1 697.345 323.255 696.272 323.858C695.2 324.461 694.297 325.483 693.686 326.783C693.076 328.084 692.789 329.599 692.864 331.121C692.939 332.643 693.373 334.098 694.106 335.285C694.839 336.472 695.835 337.334 696.958 337.752C698.081 338.171 699.275 338.125 700.377 337.621C701.48 337.118 702.436 336.181 703.114 334.939C703.792 333.698 704.16 332.213 704.167 330.688C704.282 328.953 703.879 327.227 703.042 325.871C702.205 324.516 700.999 323.636 699.677 323.415ZM699.677 335.966C698.843 336.134 697.99 335.964 697.232 335.479C696.474 334.995 695.848 334.218 695.438 333.255C695.028 332.292 694.853 331.188 694.938 330.091C695.023 328.995 695.363 327.958 695.912 327.122C696.461 326.285 697.193 325.688 698.01 325.411C698.826 325.133 699.688 325.19 700.48 325.572C701.271 325.954 701.954 326.643 702.437 327.547C702.919 328.451 703.178 329.527 703.179 330.629C703.228 331.932 702.885 333.209 702.221 334.185C701.558 335.161 700.628 335.758 699.632 335.849L699.677 335.966ZM755.712 319.661C754.569 319.347 753.38 319.501 752.308 320.104C751.235 320.708 750.332 321.729 749.721 323.03C749.111 324.33 748.824 325.845 748.899 327.367C748.974 328.889 749.408 330.344 750.141 331.531C750.874 332.719 751.87 333.58 752.993 333.999C754.116 334.417 755.31 334.371 756.413 333.868C757.515 333.364 758.471 332.427 759.149 331.186C759.828 329.944 760.195 328.459 760.202 326.934C760.317 325.199 759.914 323.473 759.077 322.118C758.24 320.762 757.034 319.882 755.712 319.661ZM755.712 332.212C754.878 332.38 754.025 332.21 753.267 331.726C752.509 331.241 751.883 330.465 751.473 329.502C751.063 328.538 750.889 327.434 750.973 326.338C751.058 325.241 751.398 324.205 751.947 323.368C752.496 322.531 753.228 321.934 754.045 321.657C754.862 321.38 755.724 321.436 756.515 321.818C757.306 322.2 757.989 322.889 758.472 323.794C758.954 324.698 759.213 325.773 759.214 326.875C759.251 327.53 759.188 328.188 759.029 328.811C758.871 329.435 758.619 330.011 758.29 330.507C757.96 331.003 757.559 331.409 757.109 331.701C756.659 331.994 756.169 332.168 755.667 332.212H755.712ZM714.224 290.747C713.082 290.432 711.893 290.587 710.82 291.19C709.748 291.793 708.844 292.815 708.234 294.115C707.624 295.416 707.336 296.931 707.411 298.453C707.486 299.975 707.92 301.43 708.653 302.617C709.386 303.804 710.383 304.666 711.505 305.084C712.628 305.503 713.823 305.457 714.925 304.953C716.027 304.45 716.983 303.513 717.661 302.271C718.34 301.03 718.708 299.545 718.714 298.019C718.829 296.285 718.426 294.559 717.589 293.203C716.753 291.848 715.547 290.967 714.224 290.747ZM714.224 303.239C713.228 303.134 712.302 302.522 711.647 301.535C710.992 300.548 710.66 299.265 710.722 297.961C710.641 297.299 710.67 296.621 710.809 295.976C710.947 295.33 711.192 294.731 711.525 294.221C711.858 293.71 712.271 293.3 712.737 293.019C713.204 292.738 713.711 292.593 714.224 292.593C714.738 292.593 715.245 292.738 715.711 293.019C716.177 293.3 716.591 293.71 716.924 294.221C717.257 294.731 717.501 295.33 717.64 295.976C717.778 296.621 717.808 297.299 717.727 297.961C717.788 299.274 717.45 300.566 716.785 301.555C716.121 302.543 715.184 303.149 714.179 303.239H714.224ZM713.91 269.516C715.053 269.83 716.242 269.675 717.314 269.072C718.387 268.469 719.29 267.448 719.9 266.147C720.511 264.847 720.798 263.332 720.723 261.81C720.648 260.287 720.214 258.833 719.481 257.646C718.748 256.458 717.752 255.596 716.629 255.178C715.506 254.76 714.311 254.806 713.209 255.309C712.107 255.813 711.151 256.75 710.473 257.991C709.794 259.233 709.427 260.718 709.42 262.243C709.305 263.978 709.708 265.704 710.545 267.059C711.382 268.415 712.588 269.295 713.91 269.516ZM713.91 256.906C714.907 257.011 715.832 257.623 716.487 258.61C717.142 259.597 717.474 260.881 717.412 262.184C717.494 262.846 717.464 263.524 717.326 264.17C717.187 264.815 716.943 265.414 716.61 265.924C716.277 266.435 715.863 266.845 715.397 267.126C714.931 267.407 714.423 267.553 713.91 267.553C713.397 267.553 712.889 267.407 712.423 267.126C711.957 266.845 711.543 266.435 711.21 265.924C710.877 265.414 710.633 264.815 710.495 264.17C710.356 263.524 710.326 262.846 710.408 262.184C710.346 260.881 710.678 259.597 711.333 258.61C711.988 257.623 712.913 257.011 713.91 256.906ZM679.517 291.627C678.211 291.934 677.03 292.831 676.18 294.16C675.329 295.489 674.863 297.167 674.863 298.899C674.863 300.632 675.329 302.309 676.18 303.638C677.03 304.968 678.211 305.864 679.517 306.172C680.822 305.864 682.003 304.968 682.853 303.638C683.704 302.309 684.17 300.632 684.17 298.899C684.17 297.167 683.704 295.489 682.853 294.16C682.003 292.831 680.822 291.934 679.517 291.627ZM679.517 304.178C678.511 304.073 677.579 303.453 676.923 302.453C676.267 301.453 675.94 300.154 676.014 298.841C675.933 298.178 675.963 297.501 676.101 296.855C676.24 296.21 676.484 295.611 676.817 295.1C677.15 294.59 677.564 294.18 678.03 293.899C678.496 293.618 679.003 293.472 679.517 293.472C680.03 293.472 680.537 293.618 681.003 293.899C681.47 294.18 681.883 294.59 682.216 295.1C682.549 295.611 682.794 296.21 682.932 296.855C683.071 297.501 683.1 298.178 683.019 298.841C683.055 299.496 682.993 300.154 682.834 300.777C682.675 301.4 682.424 301.976 682.094 302.472C681.765 302.968 681.363 303.374 680.913 303.667C680.463 303.959 679.973 304.133 679.472 304.178H679.517ZM632.641 293.21C631.507 292.908 630.33 293.071 629.269 293.677C628.209 294.282 627.318 295.301 626.718 296.594C626.119 297.887 625.84 299.39 625.919 300.898C625.999 302.406 626.434 303.845 627.164 305.018C627.894 306.191 628.883 307.04 629.997 307.45C631.111 307.86 632.295 307.81 633.386 307.307C634.477 306.804 635.423 305.873 636.093 304.64C636.764 303.408 637.126 301.936 637.131 300.424C637.245 298.696 636.841 296.977 636.003 295.631C635.165 294.285 633.96 293.417 632.641 293.21ZM632.641 305.703C631.636 305.598 630.703 304.978 630.047 303.978C629.391 302.978 629.064 301.679 629.139 300.365C629.242 299.489 629.535 298.67 629.984 298.005C630.433 297.34 631.018 296.857 631.671 296.614C632.324 296.371 633.016 296.377 633.666 296.632C634.316 296.887 634.896 297.381 635.338 298.054C635.78 298.727 636.064 299.552 636.158 300.43C636.252 301.308 636.15 302.202 635.867 303.008C635.583 303.813 635.128 304.495 634.556 304.972C633.984 305.45 633.32 305.704 632.641 305.703ZM755.398 302.946C756.53 303.248 757.705 303.086 758.764 302.482C759.823 301.879 760.714 300.863 761.314 299.574C761.915 298.285 762.196 296.785 762.12 295.28C762.044 293.774 761.614 292.335 760.888 291.161C760.163 289.986 759.178 289.132 758.068 288.716C756.957 288.3 755.776 288.341 754.684 288.835C753.592 289.329 752.644 290.25 751.968 291.474C751.292 292.698 750.922 294.164 750.908 295.673C750.793 297.408 751.196 299.134 752.033 300.49C752.869 301.845 754.075 302.725 755.398 302.946ZM755.398 290.336C756.403 290.441 757.335 291.061 757.991 292.061C758.648 293.061 758.974 294.36 758.9 295.673C758.981 296.336 758.952 297.013 758.813 297.659C758.675 298.304 758.43 298.903 758.097 299.414C757.764 299.924 757.351 300.334 756.884 300.615C756.418 300.896 755.911 301.042 755.398 301.042C754.884 301.042 754.377 300.896 753.911 300.615C753.445 300.334 753.031 299.924 752.698 299.414C752.365 298.903 752.121 298.304 751.982 297.659C751.844 297.013 751.814 296.336 751.895 295.673C751.821 294.369 752.141 293.079 752.788 292.081C753.434 291.082 754.356 290.456 755.353 290.336H755.398ZM791.138 295.439C790.982 294.275 790.574 293.194 789.961 292.326C789.349 291.457 788.558 290.836 787.682 290.539C786.807 290.241 785.885 290.278 785.026 290.646C784.166 291.014 783.406 291.696 782.836 292.613C782.265 293.53 781.909 294.641 781.808 295.815C781.708 296.989 781.868 298.176 782.27 299.234C782.672 300.293 783.298 301.177 784.075 301.784C784.851 302.39 785.744 302.691 786.648 302.653C787.962 302.432 789.161 301.561 789.997 300.218C790.832 298.875 791.241 297.164 791.138 295.439ZM782.921 295.439C783.024 294.563 783.318 293.743 783.767 293.078C784.216 292.413 784.801 291.931 785.454 291.687C786.106 291.444 786.799 291.45 787.448 291.706C788.098 291.961 788.679 292.454 789.12 293.127C789.562 293.8 789.847 294.625 789.94 295.503C790.034 296.381 789.933 297.276 789.649 298.081C789.365 298.886 788.91 299.568 788.339 300.046C787.767 300.524 787.102 300.777 786.423 300.776C785.922 300.724 785.433 300.543 784.985 300.244C784.536 299.944 784.138 299.532 783.813 299.03C783.487 298.529 783.241 297.948 783.088 297.322C782.935 296.695 782.878 296.035 782.921 295.38V295.439ZM830.066 286.641C828.924 286.327 827.735 286.481 826.662 287.085C825.59 287.688 824.686 288.709 824.076 290.01C823.466 291.31 823.178 292.825 823.253 294.347C823.328 295.87 823.762 297.324 824.495 298.511C825.228 299.699 826.225 300.56 827.347 300.979C828.47 301.397 829.665 301.351 830.767 300.848C831.869 300.344 832.825 299.407 833.504 298.166C834.182 296.924 834.55 295.439 834.556 293.914C834.671 292.179 834.268 290.453 833.431 289.098C832.594 287.742 831.389 286.862 830.066 286.641ZM830.066 299.192C829.058 299.087 828.121 298.469 827.457 297.471C826.794 296.473 826.457 295.175 826.519 293.855C826.463 293.207 826.512 292.551 826.664 291.929C826.815 291.307 827.066 290.735 827.399 290.248C827.731 289.762 828.139 289.372 828.595 289.106C829.051 288.839 829.544 288.702 830.044 288.702C830.543 288.702 831.037 288.839 831.493 289.106C831.949 289.372 832.356 289.762 832.689 290.248C833.022 290.735 833.272 291.307 833.424 291.929C833.575 292.551 833.625 293.207 833.568 293.855C833.605 294.51 833.542 295.168 833.384 295.792C833.225 296.415 832.974 296.991 832.644 297.487C832.315 297.983 831.913 298.389 831.463 298.682C831.013 298.974 830.523 299.148 830.021 299.192H830.066ZM799.489 257.903C798.345 257.588 797.154 257.743 796.08 258.349C795.006 258.954 794.102 259.98 793.493 261.284C792.884 262.588 792.599 264.106 792.677 265.631C792.756 267.155 793.195 268.61 793.932 269.796C794.67 270.981 795.671 271.839 796.797 272.25C797.924 272.662 799.12 272.608 800.222 272.095C801.323 271.581 802.276 270.635 802.949 269.385C803.622 268.136 803.982 266.645 803.979 265.117C804.082 263.392 803.674 261.681 802.838 260.338C802.002 258.995 800.803 258.123 799.489 257.903ZM799.489 270.395C798.493 270.29 797.567 269.678 796.912 268.691C796.257 267.704 795.925 266.421 795.987 265.117C795.906 264.455 795.935 263.777 796.074 263.132C796.212 262.486 796.457 261.887 796.79 261.377C797.123 260.866 797.536 260.456 798.003 260.175C798.469 259.894 798.976 259.749 799.489 259.749C800.003 259.749 800.51 259.894 800.976 260.175C801.442 260.456 801.856 260.866 802.189 261.377C802.522 261.887 802.766 262.486 802.905 263.132C803.043 263.777 803.073 264.455 802.992 265.117C803.047 265.786 802.999 266.462 802.849 267.106C802.699 267.75 802.451 268.347 802.119 268.863C801.788 269.378 801.38 269.8 800.92 270.104C800.461 270.407 799.959 270.586 799.445 270.63L799.489 270.395ZM829.842 271.04C830.984 271.355 832.173 271.2 833.246 270.597C834.319 269.994 835.222 268.972 835.832 267.672C836.443 266.372 836.73 264.857 836.655 263.334C836.58 261.812 836.146 260.358 835.413 259.171C834.68 257.983 833.684 257.121 832.561 256.703C831.438 256.285 830.243 256.331 829.141 256.834C828.039 257.338 827.083 258.275 826.405 259.516C825.726 260.757 825.358 262.243 825.352 263.768C825.237 265.503 825.64 267.229 826.477 268.584C827.314 269.94 828.519 270.82 829.842 271.04ZM829.842 258.431C830.839 258.536 831.764 259.148 832.419 260.135C833.074 261.122 833.406 262.405 833.344 263.709C833.425 264.371 833.396 265.049 833.257 265.694C833.119 266.34 832.875 266.939 832.542 267.449C832.209 267.96 831.795 268.37 831.329 268.651C830.862 268.932 830.355 269.077 829.842 269.077C829.328 269.077 828.821 268.932 828.355 268.651C827.889 268.37 827.475 267.96 827.142 267.449C826.809 266.939 826.565 266.34 826.426 265.694C826.288 265.049 826.258 264.371 826.34 263.709C826.277 262.415 826.603 261.139 827.249 260.154C827.894 259.168 828.808 258.55 829.797 258.431H829.842ZM832.626 226.936C831.492 226.633 830.314 226.796 829.254 227.402C828.194 228.008 827.303 229.027 826.703 230.32C826.103 231.612 825.824 233.116 825.904 234.624C825.984 236.132 826.418 237.571 827.148 238.744C827.878 239.916 828.868 240.766 829.982 241.176C831.096 241.585 832.279 241.535 833.371 241.032C834.462 240.529 835.408 239.598 836.078 238.366C836.748 237.134 837.111 235.661 837.116 234.15C837.23 232.421 836.825 230.702 835.988 229.356C835.15 228.01 833.944 227.142 832.626 226.936ZM832.626 239.428C831.62 239.323 830.688 238.703 830.032 237.703C829.376 236.703 829.049 235.404 829.123 234.091C829.067 233.443 829.117 232.786 829.268 232.165C829.42 231.543 829.67 230.97 830.003 230.484C830.336 229.997 830.743 229.608 831.199 229.341C831.655 229.075 832.149 228.937 832.648 228.937C833.148 228.937 833.641 229.075 834.097 229.341C834.553 229.608 834.961 229.997 835.293 230.484C835.626 230.97 835.876 231.543 836.028 232.165C836.179 232.786 836.229 233.443 836.173 234.091C836.234 235.42 835.891 236.726 835.218 237.726C834.546 238.726 833.597 239.338 832.581 239.428H832.626ZM816.821 204.707C816.665 203.544 816.257 202.463 815.644 201.594C815.031 200.725 814.24 200.105 813.365 199.807C812.49 199.509 811.568 199.546 810.709 199.914C809.849 200.282 809.089 200.965 808.518 201.882C807.948 202.798 807.591 203.91 807.491 205.084C807.391 206.258 807.551 207.444 807.953 208.503C808.355 209.561 808.981 210.446 809.758 211.052C810.534 211.658 811.427 211.96 812.331 211.921C813.645 211.701 814.844 210.829 815.679 209.486C816.515 208.144 816.924 206.433 816.821 204.707ZM808.604 204.707C808.707 203.831 809.001 203.012 809.449 202.347C809.898 201.682 810.484 201.199 811.136 200.956C811.789 200.712 812.481 200.719 813.131 200.974C813.781 201.229 814.362 201.723 814.803 202.396C815.245 203.069 815.529 203.893 815.623 204.771C815.717 205.649 815.616 206.544 815.332 207.349C815.048 208.155 814.593 208.837 814.021 209.314C813.45 209.792 812.785 210.045 812.106 210.044C811.604 209.993 811.115 209.812 810.667 209.512C810.219 209.213 809.821 208.8 809.496 208.299C809.17 207.797 808.924 207.216 808.771 206.59C808.618 205.964 808.561 205.304 808.604 204.649V204.707ZM801.285 170.925C801.092 169.859 800.674 168.885 800.079 168.114C799.484 167.342 798.736 166.803 797.918 166.559C797.101 166.314 796.247 166.374 795.455 166.73C794.662 167.087 793.961 167.726 793.432 168.576C792.903 169.426 792.567 170.452 792.462 171.539C792.356 172.626 792.486 173.729 792.836 174.724C793.186 175.72 793.743 176.567 794.442 177.17C795.142 177.774 795.957 178.109 796.795 178.139C798.109 177.918 799.308 177.047 800.144 175.704C800.98 174.361 801.388 172.65 801.285 170.925ZM793.114 170.925C793.217 170.049 793.51 169.229 793.959 168.564C794.408 167.899 794.993 167.417 795.646 167.173C796.298 166.93 796.991 166.936 797.641 167.192C798.291 167.447 798.871 167.94 799.313 168.613C799.754 169.286 800.039 170.111 800.133 170.989C800.226 171.867 800.125 172.762 799.841 173.567C799.557 174.372 799.103 175.054 798.531 175.532C797.959 176.01 797.294 176.263 796.616 176.262C795.611 176.157 794.678 175.537 794.022 174.537C793.366 173.537 793.039 172.238 793.114 170.925ZM789.252 126.761C790.416 126.715 791.544 126.222 792.495 125.344C793.445 124.466 794.177 123.241 794.598 121.823C795.019 120.405 795.111 118.857 794.863 117.371C794.614 115.885 794.036 114.527 793.201 113.468C792.365 112.408 791.309 111.694 790.164 111.414C789.02 111.134 787.837 111.3 786.765 111.892C785.692 112.485 784.777 113.476 784.134 114.744C783.49 116.011 783.146 117.499 783.146 119.02C783.157 120.052 783.325 121.071 783.638 122.018C783.951 122.966 784.404 123.824 784.971 124.543C785.538 125.262 786.208 125.828 786.943 126.208C787.677 126.589 788.462 126.777 789.252 126.761ZM789.252 113.272C790.14 113.272 791.008 113.616 791.747 114.26C792.485 114.905 793.061 115.821 793.4 116.893C793.74 117.964 793.829 119.143 793.656 120.281C793.483 121.419 793.055 122.464 792.427 123.284C791.799 124.104 790.999 124.663 790.128 124.889C789.257 125.116 788.354 124.999 787.534 124.556C786.714 124.112 786.012 123.36 785.519 122.395C785.026 121.431 784.762 120.297 784.762 119.137C784.762 117.602 785.223 116.127 786.045 115.031C786.868 113.934 787.987 113.303 789.162 113.272H789.252ZM815.519 127.172C816.683 127.126 817.81 126.633 818.761 125.755C819.712 124.877 820.443 123.652 820.865 122.234C821.286 120.816 821.378 119.267 821.129 117.781C820.881 116.295 820.303 114.938 819.467 113.878C818.631 112.819 817.575 112.105 816.431 111.824C815.286 111.544 814.104 111.711 813.031 112.303C811.959 112.895 811.044 113.887 810.4 115.154C809.756 116.422 809.413 117.909 809.412 119.43C809.418 120.465 809.581 121.487 809.892 122.438C810.204 123.39 810.656 124.251 811.225 124.971C811.793 125.691 812.465 126.257 813.202 126.635C813.94 127.013 814.727 127.195 815.519 127.172ZM815.519 113.683C816.407 113.683 817.275 114.026 818.013 114.671C818.752 115.315 819.327 116.231 819.667 117.303C820.007 118.375 820.096 119.554 819.922 120.692C819.749 121.829 819.322 122.874 818.694 123.695C818.066 124.515 817.266 125.074 816.395 125.3C815.524 125.526 814.621 125.41 813.8 124.966C812.98 124.522 812.279 123.77 811.785 122.806C811.292 121.841 811.029 120.708 811.029 119.548C811.029 118.002 811.495 116.519 812.328 115.421C813.16 114.323 814.291 113.698 815.474 113.683H815.519ZM842.055 125.413C843.219 125.366 844.346 124.874 845.297 123.995C846.248 123.117 846.979 121.892 847.401 120.474C847.822 119.056 847.914 117.508 847.665 116.022C847.417 114.536 846.838 113.178 846.003 112.119C845.167 111.06 844.111 110.345 842.967 110.065C841.822 109.785 840.64 109.951 839.567 110.543C838.495 111.136 837.58 112.127 836.936 113.395C836.292 114.663 835.949 116.15 835.948 117.671C835.96 118.703 836.127 119.722 836.44 120.669C836.754 121.617 837.207 122.475 837.774 123.194C838.341 123.913 839.011 124.479 839.745 124.859C840.48 125.24 841.264 125.428 842.055 125.413ZM842.055 111.923C842.943 111.923 843.811 112.267 844.549 112.911C845.287 113.556 845.863 114.472 846.203 115.544C846.543 116.615 846.632 117.795 846.458 118.932C846.285 120.07 845.857 121.115 845.229 121.935C844.602 122.755 843.802 123.314 842.931 123.54C842.06 123.767 841.157 123.65 840.336 123.207C839.516 122.763 838.815 122.011 838.321 121.046C837.828 120.082 837.565 118.948 837.565 117.788C837.565 116.243 838.031 114.76 838.864 113.661C839.696 112.563 840.827 111.938 842.01 111.923H842.055ZM830.65 171.687C830.486 170.529 830.072 169.456 829.455 168.595C828.838 167.735 828.046 167.124 827.172 166.835C826.297 166.546 825.377 166.59 824.522 166.963C823.666 167.336 822.91 168.022 822.344 168.939C821.778 169.856 821.425 170.966 821.327 172.138C821.229 173.309 821.391 174.492 821.793 175.547C822.194 176.602 822.819 177.485 823.594 178.09C824.368 178.694 825.258 178.997 826.16 178.96C827.478 178.726 828.677 177.842 829.512 176.49C830.347 175.137 830.754 173.419 830.65 171.687ZM822.433 171.687C822.503 170.807 822.764 169.971 823.186 169.279C823.608 168.586 824.173 168.066 824.814 167.78C825.455 167.493 826.146 167.453 826.804 167.663C827.462 167.873 828.06 168.325 828.528 168.965C828.996 169.606 829.313 170.408 829.443 171.277C829.573 172.145 829.509 173.044 829.26 173.867C829.011 174.69 828.587 175.403 828.037 175.921C827.488 176.439 826.836 176.74 826.16 176.79C825.655 176.775 825.157 176.629 824.695 176.36C824.234 176.092 823.818 175.707 823.471 175.227C823.124 174.746 822.854 174.181 822.676 173.564C822.498 172.946 822.415 172.288 822.433 171.629V171.687ZM845.736 163.476C844.594 163.162 843.405 163.316 842.332 163.92C841.26 164.523 840.356 165.544 839.746 166.845C839.136 168.145 838.848 169.66 838.923 171.182C838.998 172.704 839.432 174.159 840.165 175.346C840.898 176.534 841.895 177.395 843.018 177.814C844.14 178.232 845.335 178.186 846.437 177.683C847.539 177.179 848.495 176.242 849.174 175.001C849.852 173.759 850.22 172.274 850.226 170.749C850.341 169.014 849.938 167.288 849.102 165.933C848.265 164.577 847.059 163.697 845.736 163.476ZM845.736 176.027C844.903 176.183 844.053 176.002 843.3 175.508C842.547 175.015 841.928 174.233 841.525 173.267C841.122 172.301 840.955 171.197 841.046 170.104C841.137 169.01 841.481 167.979 842.033 167.149C842.585 166.318 843.319 165.727 844.135 165.456C844.951 165.185 845.811 165.247 846.6 165.632C847.388 166.017 848.068 166.708 848.548 167.612C849.028 168.516 849.284 169.59 849.283 170.69C849.32 171.35 849.256 172.013 849.094 172.639C848.933 173.266 848.678 173.845 848.343 174.342C848.009 174.838 847.602 175.243 847.147 175.533C846.692 175.822 846.197 175.99 845.692 176.027H845.736ZM856.018 299.427C857.161 299.742 858.35 299.587 859.423 298.984C860.495 298.381 861.399 297.359 862.009 296.059C862.619 294.758 862.907 293.243 862.831 291.721C862.756 290.199 862.323 288.744 861.59 287.557C860.857 286.37 859.86 285.508 858.737 285.09C857.614 284.671 856.42 284.717 855.318 285.221C854.216 285.724 853.26 286.661 852.581 287.903C851.903 289.144 851.535 290.629 851.528 292.154C851.413 293.889 851.816 295.615 852.653 296.971C853.49 298.326 854.696 299.206 856.018 299.427ZM856.018 286.817C857.023 286.908 857.96 287.513 858.625 288.502C859.289 289.491 859.627 290.783 859.566 292.096C859.622 292.744 859.572 293.401 859.421 294.022C859.269 294.644 859.019 295.217 858.686 295.703C858.354 296.19 857.946 296.579 857.49 296.845C857.034 297.112 856.54 297.25 856.041 297.25C855.542 297.25 855.048 297.112 854.592 296.845C854.136 296.579 853.728 296.19 853.396 295.703C853.063 295.217 852.813 294.644 852.661 294.022C852.51 293.401 852.46 292.744 852.516 292.096C852.454 290.801 852.78 289.526 853.425 288.54C854.071 287.555 854.985 286.937 855.974 286.817H856.018ZM788.758 319.368C787.616 319.053 786.427 319.208 785.354 319.811C784.282 320.414 783.378 321.436 782.768 322.736C782.158 324.037 781.87 325.552 781.945 327.074C782.02 328.596 782.454 330.051 783.187 331.238C783.92 332.425 784.917 333.287 786.039 333.706C787.162 334.124 788.357 334.078 789.459 333.574C790.561 333.071 791.517 332.134 792.196 330.893C792.874 329.651 793.242 328.166 793.248 326.641C793.363 324.906 792.96 323.18 792.123 321.824C791.286 320.469 790.081 319.589 788.758 319.368ZM788.758 331.919C787.753 331.814 786.821 331.194 786.164 330.194C785.508 329.194 785.182 327.896 785.256 326.582C785.175 325.92 785.204 325.243 785.343 324.597C785.481 323.951 785.726 323.352 786.059 322.842C786.391 322.331 786.805 321.922 787.271 321.64C787.738 321.359 788.245 321.214 788.758 321.214C789.272 321.214 789.779 321.359 790.245 321.64C790.711 321.922 791.125 322.331 791.458 322.842C791.791 323.352 792.035 323.951 792.174 324.597C792.312 325.243 792.342 325.92 792.26 326.582C792.297 327.237 792.234 327.895 792.076 328.518C791.917 329.142 791.666 329.718 791.336 330.214C791.007 330.71 790.605 331.115 790.155 331.408C789.705 331.701 789.215 331.875 788.713 331.919H788.758ZM816.417 318.84C815.274 318.526 814.085 318.68 813.013 319.283C811.94 319.886 811.037 320.908 810.426 322.209C809.816 323.509 809.529 325.024 809.604 326.546C809.679 328.068 810.113 329.523 810.846 330.71C811.579 331.897 812.575 332.759 813.698 333.178C814.821 333.596 816.015 333.55 817.117 333.047C818.22 332.543 819.176 331.606 819.854 330.365C820.532 329.123 820.9 327.638 820.907 326.113C821.022 324.378 820.619 322.652 819.782 321.297C818.945 319.941 817.739 319.061 816.417 318.84ZM816.417 331.391C815.583 331.559 814.73 331.389 813.972 330.905C813.214 330.42 812.588 329.644 812.178 328.681C811.768 327.717 811.593 326.613 811.678 325.517C811.763 324.42 812.103 323.384 812.652 322.547C813.201 321.71 813.933 321.113 814.75 320.836C815.566 320.559 816.428 320.615 817.22 320.997C818.011 321.379 818.694 322.068 819.177 322.972C819.659 323.877 819.918 324.952 819.919 326.054C819.956 326.709 819.893 327.367 819.734 327.99C819.576 328.614 819.324 329.19 818.995 329.686C818.665 330.182 818.264 330.588 817.813 330.88C817.363 331.173 816.873 331.347 816.372 331.391H816.417ZM857.59 316.963C856.458 316.662 855.282 316.824 854.224 317.427C853.165 318.031 852.274 319.046 851.674 320.335C851.073 321.624 850.791 323.124 850.868 324.63C850.944 326.136 851.374 327.574 852.099 328.749C852.824 329.924 853.809 330.777 854.92 331.193C856.03 331.61 857.212 331.568 858.304 331.075C859.396 330.581 860.344 329.659 861.02 328.435C861.696 327.212 862.066 325.745 862.08 324.236C862.195 322.501 861.792 320.775 860.955 319.42C860.118 318.064 858.912 317.184 857.59 316.963ZM857.59 329.28C856.756 329.448 855.903 329.278 855.145 328.793C854.387 328.309 853.761 327.532 853.351 326.569C852.941 325.606 852.767 324.502 852.852 323.405C852.936 322.309 853.276 321.272 853.825 320.435C854.374 319.599 855.106 319.002 855.923 318.724C856.74 318.447 857.602 318.504 858.393 318.886C859.185 319.268 859.867 319.957 860.35 320.861C860.833 321.765 861.092 322.841 861.092 323.943C861.155 325.253 860.824 326.543 860.17 327.539C859.516 328.536 858.591 329.16 857.59 329.28ZM325.66 633.497C326.221 633.497 326.77 633.279 327.236 632.87C327.702 632.462 328.064 631.881 328.277 631.203C328.49 630.524 328.543 629.778 328.43 629.06C328.318 628.341 328.044 627.683 327.643 627.169C327.243 626.655 326.735 626.307 326.184 626.172C325.632 626.036 325.062 626.117 324.546 626.406C324.03 626.695 323.591 627.177 323.286 627.793C322.98 628.408 322.822 629.128 322.831 629.861C322.831 630.344 322.904 630.821 323.047 631.266C323.19 631.711 323.399 632.115 323.662 632.453C323.925 632.792 324.238 633.058 324.581 633.238C324.924 633.417 325.29 633.505 325.66 633.497Z" fill="black" fill-opacity="0.8"/>
<path d="M326.378 118.257C326.378 119.113 326.638 119.933 327.101 120.538C327.565 121.143 328.193 121.483 328.848 121.483C329.503 121.483 330.131 121.143 330.594 120.538C331.057 119.933 331.317 119.113 331.317 118.257C331.317 117.401 331.057 116.581 330.594 115.976C330.131 115.371 329.503 115.031 328.848 115.031C328.193 115.031 327.565 115.371 327.101 115.976C326.638 116.581 326.378 117.401 326.378 118.257Z" fill="black" fill-opacity="0.8"/>
<path d="M333.427 116.791C333.427 117.615 333.678 118.406 334.124 118.989C334.571 119.572 335.176 119.9 335.807 119.9C336.438 119.9 337.044 119.572 337.49 118.989C337.936 118.406 338.187 117.615 338.187 116.791C338.187 115.967 337.936 115.176 337.49 114.593C337.044 114.01 336.438 113.683 335.807 113.683C335.176 113.683 334.571 114.01 334.124 114.593C333.678 115.176 333.427 115.967 333.427 116.791Z" fill="black" fill-opacity="0.8"/>
<path d="M334.595 108.345C335.285 108.345 335.948 107.987 336.436 107.349C336.925 106.711 337.199 105.846 337.199 104.944C337.199 104.042 336.925 103.176 336.436 102.538C335.948 101.9 335.285 101.542 334.595 101.542C334.253 101.542 333.914 101.63 333.598 101.801C333.282 101.972 332.995 102.222 332.753 102.538C332.512 102.854 332.32 103.229 332.189 103.642C332.058 104.055 331.991 104.497 331.991 104.944C331.991 105.39 332.058 105.833 332.189 106.245C332.32 106.658 332.512 107.033 332.753 107.349C332.995 107.665 333.282 107.916 333.598 108.086C333.914 108.257 334.253 108.345 334.595 108.345ZM412.451 409.982C411.855 409.982 411.271 410.214 410.775 410.649C410.28 411.083 409.894 411.701 409.668 412.422C409.442 413.143 409.385 413.937 409.505 414.7C409.624 415.464 409.915 416.164 410.341 416.711C410.766 417.258 411.306 417.628 411.893 417.773C412.479 417.918 413.085 417.832 413.634 417.525C414.183 417.219 414.65 416.706 414.975 416.052C415.3 415.398 415.469 414.633 415.46 413.853C415.448 412.821 415.126 411.837 414.563 411.112C414 410.388 413.242 409.982 412.451 409.982ZM410.79 383.062C410.79 383.795 410.957 384.512 411.27 385.121C411.583 385.73 412.027 386.203 412.547 386.481C413.066 386.759 413.637 386.828 414.187 386.681C414.737 386.534 415.241 386.176 415.635 385.653C416.029 385.131 416.294 384.467 416.398 383.746C416.503 383.026 416.44 382.281 416.219 381.607C415.998 380.933 415.629 380.36 415.157 379.961C414.686 379.562 414.135 379.355 413.574 379.367C412.831 379.382 412.123 379.779 411.603 380.47C411.082 381.161 410.79 382.092 410.79 383.062ZM412.047 363.062C412.573 363.074 413.09 362.881 413.531 362.508C413.973 362.135 414.319 361.599 414.527 360.967C414.734 360.336 414.793 359.639 414.696 358.964C414.599 358.289 414.35 357.666 413.981 357.177C413.613 356.687 413.141 356.351 412.626 356.213C412.111 356.075 411.576 356.14 411.089 356.4C410.602 356.66 410.186 357.103 409.893 357.674C409.6 358.244 409.443 358.915 409.443 359.602C409.443 360.51 409.716 361.381 410.203 362.028C410.69 362.676 411.352 363.047 412.047 363.062Z" fill="black" fill-opacity="0.8"/>
</svg>
