<svg width="902" height="1080" viewBox="0 0 902 1080" fill="none" xmlns="http://www.w3.org/2000/svg">
<path d="M271.59 228.72C263.626 235.145 257.315 244.427 253.441 255.41C248.245 270.991 244.587 287.34 242.552 304.08C245.558 304.182 248.548 304.666 251.479 305.525C251.823 305.525 253.785 306.843 254.128 308.225C255.699 315.187 256.896 322.279 257.709 329.451L355.809 330.205C356.937 330.205 356.79 331.901 355.809 331.963C355.809 331.963 266.243 333.722 257.709 333.785C259.867 356.644 258.052 381.764 245.397 397.966C233.478 413.038 192.963 415.173 177.904 400.792C165.397 388.797 162.307 354.132 163.189 333.785C160.246 333.785 93.9308 332.277 87.3581 331.963C87.176 331.963 87.0013 331.871 86.8725 331.706C86.7437 331.541 86.6714 331.317 86.6714 331.084C86.6714 330.851 86.7437 330.627 86.8725 330.462C87.0013 330.298 87.176 330.205 87.3581 330.205C98.5415 330.205 163.337 329.577 163.337 329.577C164.661 310.737 168.242 308.853 168.242 307.974C168.282 307.392 168.465 306.842 168.765 306.402C169.064 305.962 169.465 305.655 169.909 305.525C174.176 304.457 178.511 303.889 182.858 303.829C175.991 289.699 170.105 251.265 159.314 225.517C143.324 187.147 83.1398 223.696 84.1208 189.784C85.298 152.104 117.965 130.941 153.036 150.911C186.341 169.751 195.023 257.671 195.611 303.578C205.667 303.578 200.811 303.955 215.231 303.578C202.626 282.1 186.586 210.508 189.382 160.457C192.585 127.24 203.504 96.0204 220.725 70.841C235.832 49.175 253.54 40.0062 266.881 57.4018C286.501 82.5218 268.451 110.593 251.676 139.042C233.233 170.442 226.317 186.079 223.815 230.793C222.643 255.052 223.004 279.393 224.894 303.578H230.339C226.121 285.931 231.565 247.058 235.538 228.783C241.228 202.972 250.94 176.973 266.342 159.075C284.536 138.961 306.664 125.566 330.352 120.327C344.822 117.187 357.182 118.381 363.902 123.53C366.373 125.176 368.281 127.934 369.259 131.273C370.237 134.612 370.216 138.296 369.199 141.617C361.057 175.717 303.472 203.6 271.59 228.72ZM152.055 154.93C119.241 136.09 89.0258 155.872 87.9958 190.035C87.211 216.223 146.218 183.755 162.306 223.885C173.49 251.642 178.444 290.453 185.213 303.892H188.695C183.79 276.197 171.773 214.59 157.647 192.799C139.596 164.601 108.155 181.055 106.782 180.615C106.242 180.615 105.703 179.485 107.321 178.731C126.941 169.625 146.905 169.814 160.246 190.035C176.286 214.276 186.39 272.68 190.608 304.08H194.827C193.502 260.12 183.889 172.828 152.055 154.93ZM221.314 230.73C223.276 186.393 229.652 170.128 249.027 136.53C264.919 109.212 281.939 83.1498 264.379 60.3534C252.411 44.779 236.813 54.0734 223.276 73.667C206.699 98.2355 196.244 128.593 193.257 160.833C190.069 211.701 206.255 284.738 217.782 303.641H220.382C215.135 274.885 211.739 245.627 210.228 216.16C209.1 191.04 209.444 173.582 215.133 151.727C219.808 135.088 226.298 119.379 234.41 105.067C238.282 98.0079 242.544 91.313 247.163 85.0338C247.28 84.8506 247.449 84.7344 247.633 84.7108C247.817 84.6873 248.001 84.7583 248.144 84.9082C248.287 85.0581 248.378 85.2746 248.396 85.5102C248.415 85.7457 248.359 85.9809 248.242 86.1642C247.013 87.8079 245.867 89.5487 244.809 91.3766C229.505 116.497 214.398 153.172 213.22 185.577C212.043 217.981 217.095 272.052 221.755 304.08H223.129C220.962 279.734 220.355 255.202 221.314 230.73ZM171.332 310.863C163.238 320.345 165.789 383.334 180.455 397.401C195.121 411.468 233.331 408.14 243.73 395.266C260.112 375.107 258.444 337.364 252.853 309.355C252.505 309.942 252.026 310.38 251.479 310.611C247.709 311.726 243.867 312.398 240.002 312.621C244.804 335.411 243.964 359.548 237.598 381.701C237.364 382.334 236.943 382.822 236.428 383.057C235.913 383.293 235.346 383.257 234.851 382.957C234.357 382.657 233.976 382.118 233.792 381.459C233.608 380.799 233.636 380.073 233.87 379.44C240.051 363.615 241.718 328.447 238.138 313.061C222.834 313.94 181.877 314.317 171.332 310.863ZM268.451 162.278C235.195 199.958 226.66 283.419 231.81 303.766H234.851C235.548 286.316 237.92 269.041 241.915 252.333C252.509 208.373 270.265 181.369 297.488 161.022C311.709 150.607 326.928 142.606 342.761 137.221C342.944 137.162 343.136 137.199 343.297 137.323C343.458 137.446 343.574 137.647 343.62 137.88C343.665 138.113 343.637 138.36 343.54 138.566C343.443 138.772 343.287 138.921 343.105 138.979C324.621 146.482 307.078 157.354 291.014 171.258C273.201 186.441 259.293 208.028 251.038 233.305C243.205 255.648 238.236 279.461 236.323 303.829H240.934C242.748 286.592 246.241 269.714 251.332 253.589C255.31 241.993 261.837 232.13 270.118 225.203C302.54 199.644 358.408 171.635 365.864 140.235C372.78 111.41 306.121 119.071 268.451 162.278ZM692.586 485.635C757.921 456.559 816.486 443.559 852.93 431.815C853.382 431.653 853.854 431.609 854.319 431.686C854.784 431.763 855.232 431.959 855.636 432.263C856.041 432.567 856.393 432.973 856.672 433.455C856.951 433.938 857.151 434.487 857.26 435.071C857.369 435.655 857.385 436.261 857.306 436.853C857.228 437.444 857.057 438.01 856.804 438.515C856.551 439.02 856.221 439.455 855.833 439.793C855.446 440.131 855.009 440.365 854.549 440.482C831.103 447.704 795.689 455.993 757.381 467.36C694.107 486.2 692.733 491.789 691.703 487.896C691.593 487.446 691.624 486.959 691.788 486.537C691.953 486.116 692.239 485.792 692.586 485.635ZM174.863 536.44C174.863 536.292 174.886 536.145 174.93 536.008C174.975 535.87 175.04 535.746 175.122 535.641C175.204 535.536 175.301 535.453 175.408 535.396C175.516 535.339 175.63 535.31 175.746 535.31C218.763 535.31 260.603 547.87 284.294 550.696C284.582 550.727 284.863 550.832 285.119 551.005C285.375 551.178 285.601 551.415 285.784 551.702C285.967 551.989 286.103 552.32 286.184 552.676C286.265 553.032 286.29 553.405 286.256 553.773C286.231 554.145 286.149 554.506 286.015 554.837C285.881 555.168 285.696 555.462 285.473 555.701C285.25 555.941 284.991 556.121 284.713 556.232C284.435 556.343 284.142 556.382 283.852 556.348C266.489 554.15 236.421 545.735 208.266 541.087C177.022 536.44 174.814 539.266 174.863 536.44ZM323.043 667.127C323.001 667.024 322.975 666.911 322.967 666.795C322.958 666.68 322.968 666.563 322.996 666.452C323.023 666.341 323.067 666.238 323.126 666.149C323.185 666.06 323.257 665.987 323.338 665.934L324.564 665.117L324.858 667.001C324.024 667.504 323.387 668.32 323.043 667.127Z" fill="black" fill-opacity="0.8"/>
<path d="M25.1136 682.827C37.7195 679.498 68.8663 680.817 81.7174 682.261C71.1226 635.915 60.1844 575.501 55.7699 542.217C54.1709 533.007 53.4788 523.576 53.7098 514.146C53.8707 513.299 54.1675 512.504 54.5812 511.812C54.995 511.12 55.5168 510.546 56.1133 510.127C75.7333 494.364 281.302 528.967 295.624 538.073C299.892 540.773 303.718 554.401 305.434 560.555C318.138 533.802 316.814 527.459 330.989 485.195C339.823 457.666 351.027 431.484 364.393 407.135C364.049 403.806 350.462 273.873 365.03 239.145C374.84 215.909 427.961 207.745 448.415 205.547C448.415 204.165 450.966 180.427 452.045 169.688C434.779 151.225 427.52 117.25 446.257 111.535C459.549 107.516 512.033 94.7045 551.126 107.641C575.651 115.805 595.271 134.143 596.938 170.441C597.597 184.225 596.938 198.059 594.977 211.638C620.335 215.218 663.99 220.556 686.259 231.295C714.904 245.111 702.837 405.565 699.796 418.564C701.464 423.839 703.034 429.177 704.456 434.139C775.824 410.84 935.58 367.382 942.692 368.199C944.544 368.17 946.374 368.728 948.017 369.824C949.66 370.919 951.066 372.519 952.11 374.479C954.022 375.044 954.709 378.498 955.053 380.759C959.958 414.168 951.079 613.684 949.51 647.533C946.91 659.716 871.324 686.155 861.514 689.609C861.024 706.125 858.424 788.142 857.884 804.973C862.152 803.977 866.376 802.699 870.539 801.142C879.27 796.557 912.722 838.257 909.779 834.803C922.581 849.372 783.279 897.289 772.145 893.269C761.011 889.25 738.987 862.309 742.715 847.3C743.746 844.629 745.484 842.515 747.62 841.334C758.166 834.237 786.075 825.508 797.7 821.929C796.572 791.533 796.572 741.67 796.621 711.401C782.838 715.797 704.603 740.037 690.477 739.723C689.464 739.742 688.466 739.417 687.583 738.781C683.07 737.965 677.773 736.521 677.331 730.617C677.331 728.859 676.203 713.536 674.781 690.802C640.201 707.695 598.263 706.439 590.807 702.546C588.797 701.305 587.098 699.369 585.902 696.957C585.559 697.522 585.412 697.396 582.812 697.899C573.002 699.908 557.306 701.792 548.477 695.889C535.969 698.464 499.721 702.169 497.024 686.657C496.68 684.585 496.19 680.377 495.699 675.291C459.402 677.803 330.499 676.672 330.008 676.672L333 693.942C333.076 693.8 333.179 693.685 333.299 693.608C333.419 693.531 333.553 693.494 333.687 693.503C333.687 693 333.687 693.126 333.687 693.503C353.773 691.476 373.927 690.805 394.068 691.493C401.229 691.933 420.113 693.063 420.457 701.981C422.965 709.56 423.329 718.021 421.487 725.907C420.408 730.869 411.284 738.907 407.9 741.859C427.078 739.409 438.262 740.351 444.05 742.989C445.426 743.296 446.709 744.086 447.756 745.272C448.803 746.457 449.573 747.99 449.979 749.702C450.386 751.414 450.414 753.236 450.06 754.967C449.706 756.698 448.984 758.269 447.974 759.505C441.401 771.061 427.716 774.954 426.245 790.089C423.449 818.789 480.445 851.256 501.242 862.623C490.794 845.039 462.787 789.712 476.374 776.336C491.481 761.452 621.022 754.921 632.941 758.815C641.329 761.578 702.985 819.919 701.856 840.455C701.072 853.831 640.397 866.956 629.115 869.468C616.411 872.231 525.767 890.318 514.927 881.463C512.628 880.275 510.54 878.507 508.787 876.262C507.034 874.018 505.652 871.344 504.725 868.401C485.942 860.134 467.864 849.445 450.77 836.498C423.792 815.083 408.685 788.582 435.368 766.288C438.556 763.65 447.287 755.612 446.012 751.09C443.265 741.105 405.349 744.81 404.81 744.81C387.201 759.505 353.503 782.176 333.638 788.77C312.645 795.867 214.545 782.113 190.854 778.283C188.156 790.843 185.556 802.523 183.839 809.683C187.518 810.059 198.015 811.253 200.958 814.204C202.577 815.837 202.528 818.6 199.928 820.484C199.928 841.522 201.939 904.448 197.034 932.833C195.17 943.447 193.012 947.843 184.428 951.673C168.193 958.393 136.997 956.007 120.663 950.417C110.51 946.901 109.185 944.137 107.567 937.229C101.975 913.742 102.269 844.411 102.662 819.793C102.348 819.502 102.092 819.12 101.916 818.678C101.739 818.236 101.647 817.746 101.647 817.25C101.647 816.754 101.739 816.264 101.916 815.822C102.092 815.38 102.348 814.998 102.662 814.707C106.29 812.552 110.198 811.275 114.188 810.939C113.502 803.905 109.823 764.592 109.284 757.684C106.72 755.715 104.432 753.21 102.515 750.274C99.516 745.608 97.5662 739.985 96.8738 734.009C91.9688 725.782 84.9056 695.073 82.6003 685.025C60.724 686.218 28.6453 684.585 25.6532 685.025C25.4255 685.116 25.1788 685.088 24.9673 684.947C24.7557 684.806 24.5966 684.562 24.5251 684.271C24.4535 683.979 24.4753 683.664 24.5857 683.393C24.6961 683.122 24.886 682.918 25.1136 682.827ZM688.122 818.349C684.836 813.702 680.961 808.866 676.841 803.968C659.33 783.244 637.061 762.394 632.205 760.824C620.433 756.931 491.138 767.104 477.992 779.664C475.785 781.799 475.344 785.944 475.785 790.905C477.551 810.625 493.639 843.155 503.008 859.043C513.603 847.363 674.094 820.798 688.122 818.349ZM447.777 210.068C429.04 212.329 376.508 220.053 367.483 241.029C354.73 270.545 362.578 371.213 365.717 404.309C368.464 399.599 371.309 395.14 374.203 391.058C390.83 367.696 419.378 355.953 443.559 349.987C459.093 346.523 474.763 344.154 490.5 342.89C490.991 342.89 490.206 343.832 494.081 333.659C499.869 318.398 500.212 318.649 499.623 318.21C493.192 317.771 486.822 316.38 480.641 314.065C464.062 307.785 454.203 295.225 449.543 264.704C447.013 246.614 446.485 228.158 447.974 209.88L447.777 210.068ZM490.01 344.837C486.919 345.402 486.086 345.339 485.84 345.528C485.84 347.098 475.098 420.888 511.886 424.279C542.297 427.482 562.309 372.846 573.1 336.359C569.176 335.543 566.037 334.977 563.928 334.601C562.898 363.237 530.721 415.173 512.867 411.531C492.805 407.323 482.946 368.261 490.01 344.837ZM563.241 229.285C562.802 226.483 561.822 223.867 560.391 221.673C558.961 219.479 557.125 217.779 555.05 216.725C545.24 213.648 545.24 229.285 537.441 228.406C527.631 227.589 538.569 198.45 530.132 180.678C520.96 161.084 483.78 200.711 453.713 171.321C450.083 204.416 446.11 230.164 451.652 263.951C456.557 293.592 465.681 304.519 481.426 310.423C487.896 312.329 494.447 313.755 501.046 314.693C501.572 315.074 502.015 315.619 502.332 316.278C502.649 316.937 502.831 317.688 502.861 318.461C502.861 320.659 497.956 331.9 493.394 345.025C486.576 365.624 495.454 403.053 513.406 406.632C526.159 409.207 551.126 372.595 558.238 346.721C561.377 335.291 560.445 334.852 554.903 290.201C547.104 290.892 545.485 271.361 545.093 261.25C545.012 259.107 545.593 257.009 546.711 255.41C550.243 250.449 553.137 256.226 560.004 245.236C561.502 243.104 562.578 240.542 563.142 237.766C563.705 234.99 563.739 232.081 563.241 229.285ZM594.29 216.16C587.717 254.593 570.451 281.283 558.581 288.694C560.74 306.341 563.192 325.997 563.83 331.963C592.133 333.781 620.045 341.195 646.577 353.943C658.359 359.719 669.339 367.883 679.097 378.121C684.493 342.325 670.612 272.366 672.328 252.521C673.113 244.106 674.977 235.188 681.403 233.367C659.428 224.512 618.717 219.488 594.29 216.16ZM684.346 235C683.173 235.051 682.021 235.405 680.959 236.042C679.897 236.679 678.947 237.585 678.165 238.705C675.954 242.977 674.84 248.027 674.977 253.149C673.898 271.989 689.153 341.446 680.569 379.942C688.837 389.868 695.099 402.217 698.815 415.927C702.739 385.343 709.263 246.115 684.346 235ZM860.582 521.117C860.19 518.165 855.972 516.846 853.666 516.344C836.646 512.764 801.281 525.199 802.066 540.333C803.243 562.753 797.847 834.426 802.458 844.411C807.952 856.406 837.97 849.749 849.938 839.073C855.383 834.237 855.285 830.093 855.138 830.909C859.307 617.075 861.269 526.015 860.582 521.117ZM746.884 849.372C744.383 860.048 764.052 884.603 773.175 887.869C782.298 891.134 916.794 846.546 908.014 836.373C912.085 841.083 886.137 810.499 874.709 805.601C873.798 805.019 872.757 804.864 871.766 805.161C870.441 805.915 865.242 807.61 857.737 809.871C857.296 823.122 857.002 830.972 857.002 830.972C854.108 849.435 807.952 863.377 799.907 846.358C798.676 840.327 798.017 834.128 797.945 827.895C790.441 830.281 751.937 842.276 746.884 849.372ZM690.477 734.385C703.377 735.013 783.672 710.898 796.621 707.005C796.866 633.403 798.044 550.884 797.455 540.71C796.278 517.6 842.189 505.04 858.375 511.822C859.979 512.273 861.453 513.287 862.632 514.752C863.81 516.216 864.646 518.072 865.046 520.112C866.125 528.464 861.907 677.112 861.661 686.029C869.657 683.266 944.556 657.707 947.646 647.47C948.48 624.36 956.475 400.917 950.785 379.754C924.102 388.295 696.216 447.138 680.176 461.394C676.154 475.524 685.327 714.415 690.477 734.385ZM678.95 730.68C678.95 734.888 683.316 736.332 686.553 736.96C681.255 720.695 670.71 473.2 676.105 458.631C681.501 444.061 927.585 382.831 950.589 374.604C949.566 373.187 948.32 372.063 946.934 371.305C945.548 370.547 944.052 370.174 942.545 370.208C935.727 369.58 684.1 441.549 669.483 451.848C667.031 460.891 669.483 523.88 669.827 534.242C670.71 559.236 678.754 727.289 678.95 730.68ZM546.515 688.165C552.254 697.961 572.61 696.768 582.174 695.638H584.529C580.165 684.405 577.692 672.124 577.269 659.591C572.364 657.832 554.412 652.494 551.665 658.146C550.832 659.779 553.48 661.726 554.854 662.668C558.48 664.822 562.28 666.465 566.184 667.566C566.763 667.708 567.274 668.138 567.605 668.762C567.937 669.386 568.061 670.153 567.95 670.895C567.839 671.636 567.503 672.29 567.016 672.714C566.528 673.138 565.929 673.297 565.35 673.155C560.445 672.276 547.055 669.89 542.297 671.962C544.257 675.445 547.072 677.988 550.292 679.184C554.878 679.144 559.458 679.628 563.977 680.629C564.628 680.786 565.211 681.245 565.615 681.917C566.019 682.59 566.215 683.429 566.167 684.275C566.118 685.121 565.828 685.915 565.352 686.505C564.876 687.095 564.247 687.44 563.585 687.474C558.602 687.66 553.63 686.79 548.87 684.899C547.629 684.965 546.411 685.349 545.289 686.029C545.603 686.874 546.075 687.608 546.662 688.165H546.515ZM500.114 685.967C500.321 686.945 500.711 687.844 501.249 688.588C501.787 689.332 502.458 689.897 503.204 690.237C512.278 696.517 535.185 695.387 545.387 694.068C541.61 690.363 539.403 684.334 543.229 681.005C535.675 674.725 536.46 668.006 541.414 666.059C544.622 665.064 547.939 664.766 551.224 665.18C548.134 662.228 547.006 658.9 548.87 655.32C551.567 650.422 558.68 651.05 563.094 651.992C565.195 627.129 566.275 602.142 566.331 577.134C553.235 589.317 509.826 589.694 494.669 578.139C493.934 599.24 498.888 676.798 500.31 685.967H500.114ZM542.199 671.711C542.199 671.711 542.346 671.837 542.346 671.711H542.199ZM436.937 673.093C427.863 639.118 426.588 567.149 427.127 531.165C419.525 546.802 378.077 621.785 377.783 622.413C376.776 624.385 375.591 626.198 374.252 627.814C364.368 639.378 353.274 649.122 341.29 656.765C328.488 665.431 327.458 664.991 327.556 665.682L329.273 675.102C330.107 675.039 429.433 673.093 437.085 673.093H436.937ZM415.797 701.29C405.251 691.87 333.54 696.14 332.755 695.512V696.203C339.622 738.279 342.271 753.477 343.105 759.003C342.663 756.554 339.966 740.163 336.875 722.014C334.717 708.7 331.97 692.875 329.175 676.107C327.899 668.445 327.065 663.547 327.016 663.17C340.456 654.064 360.959 638.364 371.701 624.485C374.399 620.969 426.539 528.464 427.029 527.397C427.52 526.329 427.52 498.76 428.059 497.504C428.162 497.361 428.297 497.263 428.445 497.222C428.593 497.181 428.747 497.2 428.887 497.275C429.026 497.351 429.144 497.48 429.224 497.644C429.304 497.809 429.343 498.001 429.335 498.195C429.825 498.195 429.335 632.461 438.409 672.904L494.915 673.595C494.571 670.078 494.228 665.996 493.835 661.6C471.076 665.305 460.727 633.34 466.76 607.278C470.34 592.96 479.562 590.762 490.108 597.67C489.617 589.308 489.617 580.911 490.108 572.55C489.653 571.107 489.574 569.514 489.883 568.009C490.193 566.504 490.873 565.167 491.824 564.197C499.133 555.405 519.587 554.463 529.544 554.463C539.501 554.463 560.004 555.468 567.263 564.197C567.899 564.827 568.404 565.646 568.735 566.584C572.463 575.187 565.301 650.61 564.418 652.243C568.69 653.332 572.901 654.779 577.024 656.576V646.528C577.319 624.611 632.058 612.428 633.922 599.931C634.56 595.66 635.59 586.115 636.767 574.811C643.389 512.764 642.408 515.151 643.487 515.151C643.669 515.151 643.844 515.243 643.973 515.408C644.101 515.573 644.174 515.797 644.174 516.03C644.174 517.725 638.876 586.052 636.963 600.559C635.05 615.065 580.703 629.133 580.458 646.528C580.458 660.093 582.812 693.754 591.984 698.589C597.527 701.604 640.397 704.367 674.585 688.981C673.849 676.798 660.213 458.693 666.786 449.022C669.287 445.317 698.668 435.897 702.396 434.704C687.681 392 676.792 356.832 574.474 336.296C571.632 348.49 568.158 360.428 564.075 372.029C553.676 400.478 536.067 431.187 511.69 428.549C483.682 425.472 479.169 386.599 483.633 351.117C483.927 348.605 484.222 346.972 484.467 345.528C471.009 347.252 457.632 349.893 444.393 353.441C421.29 359.721 392.891 371.653 377.047 394.135C359.929 418.25 344.969 455.491 334.472 485.258C319.365 528.087 319.463 539.14 306.464 563.821C315.605 600.746 323.267 638.244 329.42 676.17C331.382 687.913 334.325 705.811 337.121 722.077C341.192 747.197 343.644 763.085 343.399 759.757C343.841 763.148 343.399 763.022 343.399 763.839C359.39 754.707 374.819 744.043 389.555 731.936C394.705 727.54 420.996 706 415.797 701.164V701.29ZM490.5 610.481C490.5 607.215 490.206 604.201 490.108 601.061C481.23 596.477 473.333 597.167 470.929 609.037C466.024 630.577 473.774 659.277 493.541 659.277C493.541 656.262 492.707 647.659 492.609 646.717C470.046 650.61 470.193 597.733 490.5 610.481ZM492.413 644.016C491.726 634.094 491.138 623.606 490.647 613.747C488.298 612.818 485.785 612.818 483.437 613.747C477.6 616.447 478.532 642.383 492.658 644.016H492.413ZM331.97 783.369C350.845 775.465 369.104 765.331 386.514 753.1C391.419 749.771 416.827 732.062 418.544 725.217C420.027 719.105 420.18 712.591 418.985 706.377C412.412 722.767 370.72 750.337 357.329 758.438C351.198 762.142 344.872 765.29 338.396 767.858C315.735 778.22 218.518 761.578 194.63 757.81C194.336 759.129 192.276 769.239 191.491 772.882C212.288 775.959 312.449 789.963 332.216 783.369H331.97ZM112.815 941.311C119.976 949.099 162.944 955.63 183.202 947.591C190.559 944.64 192.031 941.625 193.797 932.08C195.405 921.722 196.422 911.227 196.838 900.68C186.783 908.593 168.34 910.602 156.519 911.042C138.713 911.544 121.203 911.042 106.88 900.68C107.174 907.337 108.842 936.978 112.815 941.311ZM106.733 898.231C116.408 903.531 126.817 906.286 137.34 906.332C151.368 907.211 184.232 907.085 196.936 898.419C197.475 886.613 197.819 873.99 197.966 862.246C193.061 869.782 166.917 873.173 156.47 873.613C137.831 874.115 120.516 873.613 105.605 862.309C105.605 861.681 105.752 876.565 106.684 898.231H106.733ZM105.605 860.111C130.13 875.937 191.001 868.777 198.015 860.111V821.489C182.417 828.585 120.761 828.083 105.31 821.489C105.409 828.711 105.359 843.406 105.556 860.111H105.605ZM115.415 817.847C115.239 817.909 115.051 817.886 114.888 817.782C114.725 817.677 114.598 817.499 114.532 817.281C114.532 817.281 114.532 816.151 114.237 814.141C111.076 814.698 107.958 815.601 104.918 816.842C115.66 823.122 180.308 823.687 196.445 817.595C196.555 817.552 196.651 817.464 196.719 817.345C196.787 817.227 196.824 817.083 196.824 816.936C196.824 816.789 196.787 816.645 196.719 816.527C196.651 816.408 196.555 816.32 196.445 816.277C191.949 814.712 187.353 813.661 182.711 813.137C182.387 814.883 181.892 816.571 181.24 818.161C180.847 818.663 180.21 818.726 180.259 817.47C180.308 816.214 196.396 734.888 198.849 716.99C196.34 718.061 193.665 718.329 191.058 717.771C188.45 717.212 185.988 715.845 183.889 713.787C178.493 733.129 161.276 820.17 160.246 820.17C160.06 820.154 159.885 820.048 159.758 819.873C159.63 819.698 159.559 819.468 159.56 819.228L160.982 810.75H154.213C154.213 811.943 153.674 818.035 153.625 818.475C153.576 818.914 152.153 819.982 152.251 817.658C152.251 812.006 156.371 718.371 156.47 716.676C155.764 716.24 155.024 715.903 154.262 715.671C153.723 719.062 136.457 808.615 135.133 815.586C135.133 816.214 135.133 817.281 134.201 817.03C133.269 816.779 133.661 815.649 134.201 811.567L126.696 812.257V813.325C126.696 814.33 125.47 814.079 125.323 813.325C125.323 814.016 116.2 693.503 115.513 683.894C114.22 685.149 112.734 686.038 111.153 686.503C109.572 686.969 107.932 687 106.34 686.595C106.439 687.537 116.494 817.407 115.464 817.847H115.415ZM159.56 693C160.142 686.96 162.202 681.31 165.446 676.861C158.726 679.435 157.303 681.319 155.636 687.223C154.309 691.926 153.954 696.988 154.606 701.918C155.269 705.022 155.269 708.297 154.606 711.401C155.408 711.637 156.195 711.952 156.96 712.343C160.001 701.227 166.77 701.353 166.77 690.174C166.779 686.133 167.242 682.115 168.143 678.242C165.768 683.754 163.164 689.099 160.345 694.256C159.854 695.073 158.922 693.879 159.511 693H159.56ZM157.107 772.254C156.862 775.331 154.949 802.021 154.459 808.803H161.473C162.944 800.325 165.151 787.765 167.653 774.326L157.107 772.254ZM157.401 767.418L168.585 769.302C169.566 764.09 170.596 758.815 171.626 753.602C167.113 752.786 162.699 751.907 158.432 751.027C158.235 753.728 157.549 764.655 157.352 767.418H157.401ZM142.147 764.529C142.932 759.757 144.845 748.955 144.992 748.327C140.725 747.385 126.206 744.182 123.214 743.429C123.214 746.129 124.048 757.559 124.244 760.447C129.002 761.766 135.084 763.148 142.245 764.529H142.147ZM124.44 764.529C125.323 780.795 126.696 807.987 126.745 809.494C129.296 809.494 131.994 809.369 134.839 809.117C136.016 801.519 141.068 771.061 141.411 768.988C134.789 767.293 129.1 765.785 124.391 764.341L124.44 764.529ZM115.071 678.682C114.473 670.724 113.506 662.818 112.177 655.006C110.869 654.503 109.488 654.383 108.138 654.655C106.789 654.927 105.504 655.583 104.378 656.576C104.672 664.469 105.328 672.332 106.34 680.126C106.782 682.324 106.88 682.889 108.008 683.078C110.215 683.266 114.679 680.88 115.022 678.493L115.071 678.682ZM108.646 753.539C108.204 748.892 107.763 744.182 107.371 739.472C104.465 738.692 101.611 737.621 98.8358 736.269C100.382 743.279 103.847 749.342 108.597 753.351L108.646 753.539ZM100.454 731.057C102.524 732.111 104.656 732.951 106.831 733.569C105.948 723.019 100.749 661.6 100.749 657.267C100.749 650.987 109.48 648.663 113.992 650.987C115.513 651.866 115.954 655.571 116.396 658.837C118.848 676.358 121.742 720.067 122.87 737.839L145.875 743.24C151.614 711.212 151.123 712.971 151.761 712.154C152.199 711.62 152.775 711.308 153.379 711.275C153.833 708.479 153.715 705.58 153.036 702.86C152.022 697.428 152.157 691.748 153.428 686.406C154.082 682.521 155.828 679.079 158.333 676.735C162.325 674.026 166.631 672.16 171.086 671.209C171.32 671.128 171.565 671.12 171.802 671.185C172.039 671.25 172.26 671.387 172.447 671.583C172.634 671.78 172.782 672.031 172.878 672.315C172.974 672.599 173.016 672.909 172.999 673.218C172.894 673.752 172.763 674.276 172.607 674.788C168.781 686.469 171.43 691.807 168.781 698.778C166.132 705.749 161.669 706.816 160.05 714.855C160.05 715.483 158.677 744.496 158.628 746.255L172.509 749.081C173.49 744.308 180.21 710.333 182.858 707.005C187.763 700.725 201.792 707.758 202.478 713.285C202.92 716.425 196.2 750.085 195.562 753.288C220.823 757.998 247.604 762.269 271.296 765.095C281.645 766.288 344.871 773.698 341.339 760.447C336.434 731.434 326.624 678.179 324.662 667.001V666.122C324.662 665.18 324.319 664.238 324.662 667.001C324.662 666.059 324.368 665.494 324.27 665.18L312.007 604.452C310.388 596.979 299.254 546.174 293.613 542.594C281.106 534.681 75.5371 500.644 58.1734 515.527C55.2304 531.667 91.3802 723.395 100.405 731.12L100.454 731.057Z" fill="black" fill-opacity="0.8"/>
<path d="M497.808 225.957V221.122C497.808 220.339 498.051 219.588 498.484 219.035C498.916 218.481 499.502 218.17 500.114 218.17C500.73 218.17 501.321 218.479 501.761 219.031C502.202 219.582 502.455 220.333 502.468 221.122V226.774C502.36 227.521 502.03 228.185 501.549 228.629C501.067 229.073 500.47 229.262 499.883 229.157C499.295 229.052 498.762 228.66 498.393 228.064C498.025 227.468 497.851 226.714 497.907 225.957H497.808ZM184.33 612.428C185.752 610.67 187.763 608.598 189.627 609.351C192.717 610.607 195.808 620.655 197.132 624.8C200.851 637.169 203.804 649.894 205.961 662.857C203.95 669.514 170.007 660.784 165.397 657.896C163.925 657.016 164.121 654.756 164.612 652.746C169.466 638.048 176.122 624.438 184.33 612.428ZM204.637 662.04C203.754 656.828 192.57 616.887 188.744 613.245C182.809 617.578 170.89 644.205 167.702 654.253C172.116 656.514 202.086 666.248 204.637 662.04ZM604.002 795.239C604.492 795.679 615.185 804.345 615.676 804.973C615.792 805.035 615.891 805.14 615.961 805.274C616.031 805.408 616.068 805.566 616.068 805.727C616.068 805.888 616.031 806.046 615.961 806.18C615.891 806.314 615.792 806.419 615.676 806.481C612.929 807.485 603.756 808.804 600.961 809.181C533.86 787.64 533.419 787.641 534.253 787.641C533.801 787.562 533.391 787.263 533.108 786.807C532.825 786.351 532.69 785.772 532.732 785.191C532.732 784.124 534.056 776.713 534.449 774.452L604.002 795.239ZM474.019 199.707C472.646 199.707 469.948 200.523 469.408 200.586C466.431 200.982 463.481 201.653 460.579 202.596L456.165 203.6C455.997 203.654 455.82 203.63 455.664 203.533C455.509 203.436 455.385 203.271 455.315 203.069C455.245 202.867 455.232 202.639 455.28 202.426C455.328 202.213 455.433 202.029 455.576 201.905C458.135 199.129 461.24 197.304 464.553 196.63C467.833 195.729 471.248 196.101 474.363 197.697C474.466 197.726 474.563 197.781 474.65 197.858C474.736 197.935 474.81 198.033 474.867 198.147C474.924 198.261 474.963 198.388 474.982 198.521C475 198.654 474.998 198.79 474.976 198.922C474.953 199.054 474.91 199.179 474.85 199.29C474.79 199.401 474.713 199.495 474.624 199.568C474.536 199.641 474.436 199.691 474.333 199.715C474.229 199.738 474.122 199.736 474.019 199.707ZM512.867 205.233C511.542 204.856 508.698 204.291 507.962 204.166C504.989 203.335 501.973 202.789 498.937 202.533L494.032 201.842C493.836 201.842 493.649 201.743 493.511 201.566C493.373 201.39 493.296 201.15 493.296 200.9C493.296 200.65 493.373 200.411 493.511 200.234C493.649 200.057 493.836 199.958 494.032 199.958C497.193 198.242 500.662 197.668 504.061 198.299C507.459 198.93 510.658 200.742 513.308 203.538C513.425 203.538 513.54 203.573 513.644 203.641C513.747 203.709 513.837 203.808 513.905 203.929C513.973 204.05 514.018 204.19 514.036 204.338C514.053 204.485 514.043 204.636 514.006 204.778C513.969 204.919 513.907 205.048 513.824 205.152C513.74 205.257 513.639 205.334 513.528 205.379C513.416 205.423 513.298 205.433 513.183 205.408C513.069 205.383 512.96 205.323 512.867 205.233ZM463.817 216.16C464.428 216.16 465.015 216.471 465.447 217.025C465.879 217.579 466.122 218.329 466.122 219.112V224.764C466.038 225.547 465.714 226.255 465.221 226.732C464.729 227.209 464.109 227.416 463.498 227.308C462.887 227.199 462.334 226.784 461.961 226.154C461.589 225.524 461.427 224.731 461.511 223.948V219.112C461.505 218.722 461.56 218.334 461.673 217.973C461.787 217.611 461.956 217.282 462.172 217.006C462.387 216.73 462.644 216.513 462.927 216.368C463.209 216.222 463.512 216.152 463.817 216.16ZM844.494 761.39C837.676 764.216 821.784 771.815 814.475 770.685C813.592 770.685 812.611 769.554 811.974 767.545C807.069 753.415 810.6 681.571 812.366 667.693C813.592 657.707 841.796 645.336 848.614 652.432C853.029 657.017 850.821 710.208 850.331 717.619C849.056 735.516 850.38 758.941 844.494 761.39ZM846.407 655.76C841.109 650.862 816.535 662.48 815.751 668.32C814.524 678.18 809.963 761.076 814.868 767.545C821.195 768.738 837.97 762.144 844.298 759.632C848.761 757.748 847.241 732.753 847.976 717.305C848.32 706.88 848.859 665.495 846.407 655.76ZM497.857 263.574C497.979 263.497 498.114 263.457 498.25 263.457C498.386 263.457 498.52 263.497 498.642 263.574C499.869 264.14 500.604 265.898 500.8 268.473C500.959 275.126 499.215 281.625 495.895 286.748C495.117 288.108 494.134 289.253 493.002 290.116C491.871 290.978 490.616 291.541 489.312 291.769C488.007 291.998 486.68 291.888 485.41 291.446C484.139 291.004 482.951 290.239 481.916 289.197C478.96 286.081 476.637 282.095 475.147 277.579C475.013 277.227 474.943 276.84 474.943 276.448C474.943 276.057 475.013 275.67 475.147 275.318C476.668 272.304 480.298 276.574 497.857 263.574ZM498.299 265.71C492.97 271.52 486.732 275.802 480.003 278.27C490.5 301.129 501.046 270.294 498.299 265.71ZM486.282 250.952C483.142 251.705 474.461 250.324 472.597 246.242C471.665 244.295 472.597 243.667 474.657 235.628C476.513 228.645 478.692 221.809 481.18 215.156C482.063 213.397 483.192 215.156 482.554 216.223C481.191 225.852 479.02 235.263 476.079 244.295C479.629 246.422 483.264 248.308 486.968 249.947C486.975 250.071 486.963 250.195 486.932 250.312C486.901 250.43 486.852 250.539 486.788 250.632C486.724 250.725 486.647 250.802 486.56 250.856C486.473 250.911 486.378 250.944 486.282 250.952ZM305.385 904.009C286.992 889.062 301.314 875.309 313.479 881.841C316.471 874.87 317.157 874.305 323.289 874.681C355.122 876.754 498.888 919.332 500.261 920.023C507.52 923.854 489.078 979.306 481.769 986.591C480.101 988.224 480.641 988.538 462.64 984.016C461.462 997.707 456.803 1021.7 445.914 1022.45C440.839 1021.26 435.897 1019.28 431.199 1016.55C422.102 1028.13 412.418 1038.94 402.21 1048.89C390.928 1058.56 318.825 950.732 308.034 938.172C304.944 936.853 302.197 935.974 302.54 926.177C293.221 923.979 286.011 916.632 290.965 906.081C294.3 899.676 300.088 900.68 305.385 904.009ZM303.669 886.927C301.657 887.869 300.627 888.874 301.265 891.449C302.586 895.384 304.523 898.932 306.955 901.874C308.256 896.766 309.779 891.755 311.516 886.865C308.977 885.693 306.196 885.716 303.669 886.927ZM355.858 884.855C354.043 895.845 352.817 901.811 350.511 911.922L384.503 920.149C386.458 911.062 388.733 902.094 391.321 893.27C384.895 891.7 361.106 885.985 355.858 884.855ZM406.134 968.693C404.335 976.583 401.677 984.109 398.237 991.05C407.655 996.89 416.533 1002.23 424.086 1006.62C426.796 996.092 430.608 986.079 435.417 976.857L406.134 968.693ZM420.015 968.693C421.673 957.781 423.769 946.986 426.294 936.351L387.054 925.487C384.913 936.124 382.326 946.606 379.304 956.886C392.792 960.529 406.87 964.611 420.015 968.442V968.693ZM403.681 969.007C404.221 968.002 407.556 969.509 371.456 958.896C370.818 963.563 369.468 968.023 367.483 972.021L396.226 990.045C397.932 982.542 400.441 975.378 403.681 968.756V969.007ZM369.346 958.205C350.707 952.679 333.589 947.404 321.768 943.385L365.079 970.451C365.881 965.992 367.31 961.757 369.297 957.954L369.346 958.205ZM377.636 956.259C379.209 945.544 381.207 934.938 383.62 924.482L350.119 913.931C350.119 914.245 347.863 923.917 346.833 928.061C346.342 929.945 342.173 945.143 341.928 945.394C352.081 948.283 376.851 955.756 377.685 956.007L377.636 956.259ZM392.792 893.898C391.174 905.328 389.653 912.738 387.887 921.279L427.127 932.332C429.433 922.346 431.002 915.815 434.387 904.511C426.735 902.251 398.678 895.091 392.743 893.647L392.792 893.898ZM436.005 904.888C434.092 917.448 432.67 924.042 430.61 933.336C433.896 934.279 460.727 942.882 460.727 942.882C461.708 942.882 461.315 944.829 460.334 944.578C460.334 944.578 431.248 937.67 429.776 937.23C429.776 937.23 427.667 948.032 421.634 969.195L453.271 978.239C457.796 956.332 463.483 934.847 470.291 913.931L436.005 904.888ZM480.396 984.456C487.851 977.297 504.921 924.544 499.77 921.656C499.77 921.656 488.538 918.516 471.665 913.994C467.459 936.003 461.849 957.532 454.89 978.364C480.69 985.774 479.562 985.021 480.347 984.205L480.396 984.456ZM446.061 1017.87C454.35 1017.87 459.304 994.943 460.776 984.519C460.776 983.325 463.375 984.518 437.722 977.673C436.447 977.359 438.458 976.92 432.327 993.248C430.568 998.378 428.398 1003.26 425.852 1007.82C432.304 1011.77 438.997 1015.05 445.865 1017.61L446.061 1017.87ZM400.346 1044.74C410.318 1035.8 419.898 1026.15 429.04 1015.86C420.604 1011.4 411.039 1005.68 402.799 1000.66C396.347 1010.26 389.038 1018.86 381.02 1026.28C384.356 1029.92 395.686 1043.36 400.15 1044.49L400.346 1044.74ZM379.598 1024.4C386.076 1015.14 393.33 1006.82 401.229 999.591L370.426 980.185C366.133 985.826 361.166 990.553 355.711 994.19C363.425 1004.41 371.324 1014.4 379.402 1024.15L379.598 1024.4ZM354.043 992.18C358.134 986.833 362.79 982.246 367.875 978.552C346.783 964.925 334.668 956.635 314.999 942.694C323.73 952.553 345.901 981.567 353.847 991.929L354.043 992.18ZM307.249 933.148C309.358 935.095 338.249 944.138 340.75 944.892C343.874 924.347 348.454 904.209 354.435 884.729C344.92 882.657 326.084 878.449 319.07 879.454C318.122 880.883 317.299 882.442 316.618 884.101C319.965 887.013 322.736 890.884 324.711 895.405C325.201 896.975 323.926 897.792 323.289 897.038C320.834 893.714 317.967 890.934 314.803 888.811C312.577 894.699 310.644 900.761 309.015 906.961C313.373 910.776 317.301 915.34 320.689 920.525C321.327 921.53 321.13 922.284 320.689 922.598C319.512 923.477 319.414 921.216 307.838 912.424C306.668 917.509 306.009 922.763 305.876 928.061C306.121 929.192 306.268 932.081 307.053 932.897L307.249 933.148ZM295.036 916.318C297.227 919.53 299.984 922.028 303.08 923.602C303.532 919.126 304.237 914.697 305.189 910.352C302.001 908.279 297.047 905.642 295.379 909.472C294.751 910.354 294.36 911.47 294.263 912.656C294.166 913.842 294.368 915.038 294.84 916.067L295.036 916.318Z" fill="black" fill-opacity="0.8"/>
</svg>
