<svg width="320" height="334" viewBox="0 0 320 334" fill="none" xmlns="http://www.w3.org/2000/svg">
<path d="M11.6666 96.6706C2.99885 83.3111 -1.4339 67.0326 1.67585 50.5336C3.15215 42.6644 6.16758 35.1641 10.5489 28.4628C14.9303 21.7615 20.5916 15.9913 27.208 11.4828C33.8244 6.97417 41.2657 3.81619 49.1052 2.18987C56.9449 0.56354 65.0283 0.500889 72.8921 2.00549C80.7559 3.5101 88.2454 6.55237 94.9309 10.9578C101.616 15.3632 107.366 21.0451 111.851 27.6778C116.336 34.3103 119.467 41.763 121.065 49.6082C122.663 57.4537 122.697 65.5373 121.164 73.3956C117.207 94.5059 105.731 108.844 83.3308 118.987C72.5001 123.894 31.7688 127.651 11.6666 96.6706ZM30.3041 53.1971C31.7513 57.9234 34.3767 62.204 37.9334 65.6367C41.4899 69.0693 45.8611 71.5412 50.6358 72.8197C55.4103 74.0984 60.4317 74.142 65.2278 72.9462C70.024 71.7505 74.4373 69.3549 78.0528 65.9844C98.7396 46.6889 82.0778 12.1247 53.8346 16.0656C49.7119 16.6855 45.7708 18.1844 42.2781 20.4606C38.7855 22.7368 35.8229 25.7374 33.5915 29.2589C31.3599 32.7803 29.9114 36.7403 29.3442 40.8705C28.777 45.0007 29.1045 49.2045 30.3041 53.1971ZM39.8801 115.648C39.7348 116.143 40.1793 116.248 40.6396 116.4C70.0518 126.148 96.9073 115.28 110.869 93.1759C111.231 92.6054 111.259 92.4636 110.736 92.0419C92.2576 74.0117 46.2623 86.4226 39.8801 115.648Z" fill="#514E4E" fill-opacity="0.8"/>
<path d="M67.0381 32.8604C67.0031 39.9584 58.2304 43.0104 57.8681 49.0426C57.7054 51.7341 60.9464 53.5261 58.9304 55.1676C57.3081 56.4836 55.3359 53.0676 54.7846 49.9824C54.7519 48.9695 54.8347 47.9561 55.0314 46.9619C56.2756 40.8911 64.2766 38.0544 63.5871 32.3319C62.8976 26.6094 56.5206 27.6261 51.9671 32.1114C50.2871 33.7651 50.6616 34.9831 50.1646 35.9264C49.5084 37.1654 47.8319 36.3236 47.6884 34.9394C47.0479 28.7759 59.4834 20.0766 65.6906 28.5659C66.6003 29.8101 67.074 31.3197 67.0381 32.8604Z" fill="#514E4E" fill-opacity="0.8"/>
<path d="M60.336 63.8461C60.0166 63.6656 59.7434 63.4135 59.5383 63.1093C59.3332 62.8052 59.2016 62.4574 59.1538 62.0938C59.1062 61.73 59.1437 61.3602 59.2635 61.0135C59.3832 60.6667 59.5821 60.3525 59.8442 60.0958C60.0705 59.8687 60.3447 59.6951 60.6469 59.5876C60.9492 59.4803 61.2715 59.442 61.5904 59.4756C61.9094 59.5092 62.2167 59.6139 62.4899 59.7817C62.763 59.9495 62.9953 60.1765 63.1692 60.4458C64.172 62.1748 62.394 64.8926 60.336 63.8461Z" fill="#514E4E" fill-opacity="0.8"/>
<path d="M20.9484 305.506C45.7704 298.709 106.459 291.22 132.016 288.2C193.388 280.946 257.291 274.874 318.566 272.037C318.751 272.035 318.931 272.105 319.068 272.233C319.204 272.359 319.285 272.534 319.295 272.719C319.306 272.907 319.243 273.089 319.122 273.23C319.001 273.372 318.83 273.461 318.644 273.479C242.332 278.554 66.2139 297.176 21.6327 308.454C20.7122 308.685 20.0402 305.754 20.9484 305.506Z" fill="#514E4E" fill-opacity="0.8"/>
<path d="M234.375 192.987C233.988 192.112 235.737 193.1 236.384 191.281C237.926 186.945 237.945 185.585 235.94 184.084C233.553 182.544 230.982 181.308 228.287 180.409C227.613 180.202 229.069 179.534 230.725 177.518C231.145 177.008 231.013 177.204 235.014 179.201C239.895 181.639 240.199 181.369 240.789 182.937C241.555 184.749 242.968 186.21 244.753 187.036C248.373 188.882 251.894 190.639 254.784 187.569C255.144 187.186 255.12 187.23 257.139 188.296C266.384 193.173 266.131 192.221 266.349 193.243C266.603 194.326 267.109 195.334 267.825 196.185C268.54 197.037 269.445 197.707 270.469 198.143C273.435 199.734 274.931 200.852 277.931 199.827C286.681 196.834 291.877 184.472 287.887 180.538C284.469 177.171 282.614 174.847 277.891 175.885C277.159 176.046 277.745 176.051 268.525 169.597C267.567 168.927 267.553 168.759 267.702 168.213C267.853 167.647 267.867 167.054 267.742 166.482C267.618 165.91 267.359 165.376 266.986 164.925C261.84 158.126 257.186 158.371 255.524 158.474C255.365 158.493 255.202 158.474 255.05 158.42C254.897 158.365 254.761 158.277 254.649 158.161C247.124 149.493 194.06 112.643 181.17 103.956C179.889 103.092 180.69 102.8 180.351 101.606C179.126 97.2889 172.574 91.4317 168.626 89.9109C153.009 83.8962 133.983 104 135.624 120.548C136.527 129.648 141.154 133.085 149.49 136.389C150.966 136.962 152.562 137.157 154.132 136.956C155.773 136.499 157.349 135.834 158.82 134.975C160.366 133.951 159.548 136.559 208.346 164.774C209.126 165.226 208.804 165.187 208.776 166.073C208.629 169.527 209.392 172.957 210.99 176.023C211.359 176.723 210.815 176.373 208.522 176.305C202.473 176.112 201.942 177.824 201.921 183.781C201.921 185.025 202.639 185.585 203.883 186.281C205.707 187.305 205.777 187.354 205.672 187.713C205.476 188.382 155.923 327.85 155.846 330.032C155.788 331.691 157.545 332.954 159.171 333.247C159.547 333.315 161.054 329.591 163.756 322.797C170.134 306.762 186.479 267.608 189.397 260.174C213.977 197.524 210.426 206.021 213.939 197.385C214.444 196.143 214.43 197.191 214.723 202.091C214.861 204.399 222.85 318.158 223.312 323.581C223.728 328.441 223.929 328.431 224.594 328.481C225.336 328.669 226.113 328.672 226.857 328.494C227.603 328.315 228.292 327.958 228.87 327.456C229.78 326.353 229.482 325.963 229.076 314.506C228.845 308.001 225.004 200.862 225.035 200.859C225.035 196.309 265.593 297.323 279.219 327.65C279.772 328.875 280.517 328.294 282.432 327.354C283.127 326.871 283.627 326.157 283.842 325.338C284.058 324.519 283.975 323.651 283.61 322.888C277.99 307.779 234.375 192.987 234.375 192.987ZM287.148 181.612C288.858 183.452 288.335 188.334 285.048 192.923C282.738 196.146 278.482 199.982 274.861 198.552C272.761 197.725 271.914 195.403 273.297 191.028C275.283 184.726 283.657 177.85 287.146 181.611L287.148 181.612ZM280.587 177.062C281.797 177.232 282.915 177.806 283.757 178.692C283.909 178.828 284.406 179.336 283.478 179.339C278.246 179.95 271.587 187.797 271.228 193.987C271.09 196.314 271.578 196.656 270.87 196.405C265.95 194.682 267.331 187.598 271.267 182.475C272.604 180.769 274.216 179.297 276.037 178.121C277.401 177.29 278.995 176.919 280.586 177.062H280.587ZM275.687 176.21C276.676 176.853 274.758 176.247 271.055 180.41C264.003 188.333 267.686 192.071 265.105 190.94C264.039 190.473 262.004 189.314 257.549 187.001C250.374 183.275 250.445 183.313 250.549 182.51C251.145 179.288 252.47 176.245 254.421 173.613C256.093 171.189 258.208 169.103 260.655 167.467C261.33 166.997 261.736 166.661 262.606 167.264C263.91 168.176 267.063 170.612 275.675 176.21H275.687ZM260.896 161.001C263.611 162.804 266.006 165.376 264.962 164.89C262.205 163.605 258.91 166.498 256.43 168.809C252.902 172.092 250.367 176.299 249.11 180.951C248.802 181.893 248.685 182.886 248.764 183.873C248.842 184.86 249.115 185.823 249.569 186.703C249.761 187.003 250.202 187.753 249.219 187.454C247.15 186.842 245.22 185.837 243.531 184.495C241.828 183.079 241.459 180.055 241.485 177.918C241.61 167.278 254.085 156.483 260.888 161.001H260.896ZM152.367 134.858C152.169 135.147 151.821 135.094 151.492 134.97C145.732 132.796 138.741 130.107 137.666 121.701C136.091 109.339 144.955 95.7804 157.442 91.7764C160.805 90.4777 164.517 90.3845 167.942 91.5122C171.421 93.2478 174.487 95.7101 176.931 98.7327C175.467 98.1732 173.883 97.9926 172.329 98.2077C158.84 99.8387 143.76 126.397 151.747 134.137C152.027 134.408 152.442 134.746 152.367 134.858ZM152.167 127.942C151.972 127.859 151.813 127.708 151.721 127.517C151.628 127.327 151.608 127.109 151.665 126.904C154.477 110.43 168.236 100.119 171.818 100.248C172.467 100.204 172.416 100.15 177.883 103.977C200.037 119.481 231.736 140.684 253.419 158.698C254.246 159.386 248.547 159.465 243.132 167.483C238.155 174.854 240.647 180.477 239.522 179.883C196.713 157.354 156.418 130.129 152.167 127.942ZM204.58 178.167C205.63 177.033 210.943 177.992 211.58 178.062C211.868 178.076 212.15 178.156 212.402 178.295C212.656 178.435 212.873 178.63 213.039 178.867C214.541 180.678 216.607 181.933 218.907 182.428C221.206 182.923 223.606 182.631 225.72 181.599C226.071 181.355 226.502 181.25 226.925 181.306C229.414 182.071 231.806 183.116 234.058 184.421C241.069 188.821 222.279 187.307 209.371 181.985C208.024 181.424 203.584 179.231 204.58 178.161V178.167ZM230.947 191.246C215.988 191.294 203.272 185.487 203.355 183.854C203.472 181.534 203.421 179.939 204.125 180.594C209.292 185.396 229.246 189.421 235.352 188.103C235.674 188.033 235.737 188.135 235.702 188.368C235.567 189.132 235.378 189.886 235.138 190.625C234.695 191.454 233.794 191.232 230.947 191.241V191.246Z" fill="#514E4E" fill-opacity="0.8"/>
<path d="M275.584 195.303C276.676 197.928 281.285 195.292 283.797 191.136C284.939 189.246 286.063 187.198 285.697 185.312C285.26 183.037 282.649 183.292 280.942 184.575C277.794 186.939 274.511 191.957 275.584 195.303Z" fill="#514E4E" fill-opacity="0.8"/>
<path d="M65.8275 189.08C67.6965 189.08 67.6143 189.185 67.5775 188.555C67.5775 188.555 67.2853 185.629 67.021 182.04C66.9388 180.923 69.338 179.836 69.5725 186.437C69.6775 189.412 69.8385 189.237 70.3565 189.25C76.975 189.39 77.0608 189.061 77.297 189.628C77.5123 190.153 74.6475 190.956 74.0963 191.059C70.087 191.805 70.0713 191.059 70.0713 192.172C70.1203 199.597 70.0993 198.105 70.2865 199.631C70.3233 199.923 70.003 199.916 69.8893 199.828C68.7185 198.931 68.1393 194.69 68.0938 193.672C67.9783 191.355 67.805 191.495 67.3465 191.46C64.0618 191.208 63.2638 191.276 63.2113 190.527C63.101 188.987 64.2753 189.08 65.8275 189.08Z" fill="#514E4E" fill-opacity="0.8"/>
<path d="M194.491 32.8944C194.491 36.5694 194.332 36.4994 194.965 36.5011C197.484 36.5011 198.115 36.5834 199.055 36.6376C199.995 36.6919 199.909 37.3569 199.456 37.6351C198.203 38.3911 196.764 38.7849 195.301 38.7726C194.199 38.8794 194.715 38.5066 194.159 43.6324C193.842 46.5636 193.571 47.7309 193.004 47.3231C191.962 46.5741 192.15 41.6006 191.983 39.2871C191.945 38.7306 192.064 38.6781 189.267 38.6834C188.725 38.6834 187.992 38.7481 187.832 38.0866C187.589 37.0751 187.761 36.5799 189.757 36.5116C192.062 36.4276 192.144 36.5904 192.167 36.0776C192.213 33.8646 192.379 31.6556 192.666 29.4609C192.666 29.2204 192.762 28.9898 192.932 28.8199C193.102 28.6499 193.333 28.5544 193.572 28.5544C193.812 28.5544 194.043 28.6499 194.213 28.8199C194.383 28.9898 194.479 29.2204 194.479 29.4609C194.542 30.6043 194.545 31.7504 194.491 32.8944Z" fill="#514E4E" fill-opacity="0.8"/>
<path d="M286.392 93.5529C286.854 93.6964 285.934 94.5366 285.167 94.8726C284.31 95.1391 283.424 95.3088 282.528 95.3783C282.324 95.4098 281.933 95.3783 281.869 95.6951C281.629 96.8886 281.527 98.6036 281.058 101.47C280.708 103.612 280.339 103.764 280.008 103.815C279.751 103.854 279.308 103.519 279.34 101.568C279.382 99.3526 279.503 96.3531 279.564 95.9996C279.643 95.5551 278.78 95.6601 276.526 95.9016C276.3 95.9273 276.074 95.872 275.885 95.7456C275.698 95.6193 275.56 95.4299 275.499 95.2119C275.437 94.9937 275.457 94.7607 275.551 94.5549C275.646 94.3491 275.81 94.1838 276.017 94.0884C277.03 93.5825 278.129 93.2687 279.258 93.1627C279.459 93.1154 279.692 93.2537 279.805 92.9317C280.21 91.7977 280.103 88.9541 280.474 87.5068C280.869 85.9616 281.991 86.4164 282.021 87.5977C282.215 95.8822 281.009 91.8799 286.392 93.5529Z" fill="#514E4E" fill-opacity="0.8"/>
</svg>
