<svg width="34" height="34" viewBox="0 0 34 34" fill="none" xmlns="http://www.w3.org/2000/svg">
<path d="M28.7487 0H11.8377C10.4922 0 9.20176 0.537319 8.25033 1.49376C7.2989 2.45019 6.7644 3.7474 6.7644 5.1V6.8H5.0733C3.72778 6.8 2.43736 7.33732 1.48594 8.29376C0.534506 9.25019 0 10.5474 0 11.9V28.9C0 30.2525 0.534506 31.5498 1.48594 32.5062C2.43736 33.4626 3.72778 34 5.0733 34H21.9843C23.3297 34 24.6202 33.4626 25.5716 32.5062C26.523 31.5498 27.0576 30.2525 27.0576 28.9V27.2H28.7487C30.0941 27.2 31.3846 26.6626 32.336 25.7062C33.2874 24.7498 33.822 23.4525 33.822 22.1V5.1C33.822 3.7474 33.2874 2.45019 32.336 1.49376C31.3846 0.537319 30.0941 0 28.7487 0ZM23.6754 28.9C23.6754 29.3508 23.4972 29.7833 23.1801 30.1021C22.863 30.4208 22.4328 30.6 21.9843 30.6H5.0733C4.62478 30.6 4.19465 30.4208 3.87751 30.1021C3.56037 29.7833 3.3822 29.3508 3.3822 28.9V17H23.6754V28.9ZM23.6754 13.6H3.3822V11.9C3.3822 11.4491 3.56037 11.0167 3.87751 10.6979C4.19465 10.3791 4.62478 10.2 5.0733 10.2H21.9843C22.4328 10.2 22.863 10.3791 23.1801 10.6979C23.4972 11.0167 23.6754 11.4491 23.6754 11.9V13.6ZM30.4398 22.1C30.4398 22.5508 30.2615 22.9833 29.9445 23.3021C29.6274 23.6208 29.1972 23.8 28.7487 23.8H27.0576V11.9C27.053 11.3201 26.95 10.7451 26.7532 10.2H30.4398V22.1ZM30.4398 6.8H10.1466V5.1C10.1466 4.64913 10.3248 4.21673 10.6419 3.89791C10.9591 3.57911 11.3892 3.4 11.8377 3.4H28.7487C29.1972 3.4 29.6274 3.57911 29.9445 3.89791C30.2615 4.21673 30.4398 4.64913 30.4398 5.1V6.8Z" fill="#FAF9F9"/>
</svg>
