<svg width="427" height="470" viewBox="0 0 427 470" fill="none" xmlns="http://www.w3.org/2000/svg">
<path d="M213.333 384C217.553 384 221.677 382.749 225.185 380.405C228.694 378.061 231.428 374.729 233.043 370.831C234.657 366.932 235.08 362.643 234.257 358.505C233.434 354.366 231.402 350.565 228.418 347.582C225.435 344.598 221.634 342.566 217.495 341.743C213.357 340.92 209.068 341.343 205.169 342.957C201.271 344.572 197.939 347.306 195.595 350.815C193.251 354.323 192 358.447 192 362.667C192 368.325 194.248 373.751 198.248 377.752C202.249 381.752 207.675 384 213.333 384ZM320 384C324.219 384 328.344 382.749 331.852 380.405C335.36 378.061 338.095 374.729 339.709 370.831C341.324 366.932 341.747 362.643 340.923 358.505C340.1 354.366 338.068 350.565 335.085 347.582C332.101 344.598 328.3 342.566 324.162 341.743C320.024 340.92 315.734 341.343 311.836 342.957C307.938 344.572 304.606 347.306 302.262 350.815C299.918 354.323 298.667 358.447 298.667 362.667C298.667 368.325 300.914 373.751 304.915 377.752C308.916 381.752 314.342 384 320 384ZM320 298.667C324.219 298.667 328.344 297.415 331.852 295.071C335.36 292.727 338.095 289.395 339.709 285.497C341.324 281.599 341.747 277.31 340.923 273.171C340.1 269.033 338.068 265.232 335.085 262.248C332.101 259.265 328.3 257.233 324.162 256.41C320.024 255.587 315.734 256.009 311.836 257.624C307.938 259.239 304.606 261.973 302.262 265.481C299.918 268.989 298.667 273.114 298.667 277.333C298.667 282.991 300.914 288.418 304.915 292.418C308.916 296.419 314.342 298.667 320 298.667ZM213.333 298.667C217.553 298.667 221.677 297.415 225.185 295.071C228.694 292.727 231.428 289.395 233.043 285.497C234.657 281.599 235.08 277.31 234.257 273.171C233.434 269.033 231.402 265.232 228.418 262.248C225.435 259.265 221.634 257.233 217.495 256.41C213.357 255.587 209.068 256.009 205.169 257.624C201.271 259.239 197.939 261.973 195.595 265.481C193.251 268.989 192 273.114 192 277.333C192 282.991 194.248 288.418 198.248 292.418C202.249 296.419 207.675 298.667 213.333 298.667ZM362.667 42.6667H341.333V21.3333C341.333 15.6754 339.086 10.2492 335.085 6.24839C331.084 2.24761 325.658 0 320 0C314.342 0 308.916 2.24761 304.915 6.24839C300.914 10.2492 298.667 15.6754 298.667 21.3333V42.6667H128V21.3333C128 15.6754 125.752 10.2492 121.752 6.24839C117.751 2.24761 112.325 0 106.667 0C101.009 0 95.5825 2.24761 91.5817 6.24839C87.5809 10.2492 85.3333 15.6754 85.3333 21.3333V42.6667H64C47.0261 42.6667 30.7475 49.4095 18.7452 61.4118C6.74284 73.4142 0 89.6928 0 106.667V405.333C0 422.307 6.74284 438.586 18.7452 450.588C30.7475 462.591 47.0261 469.333 64 469.333H362.667C379.641 469.333 395.919 462.591 407.921 450.588C419.924 438.586 426.667 422.307 426.667 405.333V106.667C426.667 89.6928 419.924 73.4142 407.921 61.4118C395.919 49.4095 379.641 42.6667 362.667 42.6667ZM384 405.333C384 410.991 381.752 416.418 377.752 420.418C373.751 424.419 368.325 426.667 362.667 426.667H64C58.342 426.667 52.9158 424.419 48.9151 420.418C44.9143 416.418 42.6667 410.991 42.6667 405.333V213.333H384V405.333ZM384 170.667H42.6667V106.667C42.6667 101.009 44.9143 95.5825 48.9151 91.5817C52.9158 87.581 58.342 85.3333 64 85.3333H85.3333V106.667C85.3333 112.325 87.5809 117.751 91.5817 121.752C95.5825 125.752 101.009 128 106.667 128C112.325 128 117.751 125.752 121.752 121.752C125.752 117.751 128 112.325 128 106.667V85.3333H298.667V106.667C298.667 112.325 300.914 117.751 304.915 121.752C308.916 125.752 314.342 128 320 128C325.658 128 331.084 125.752 335.085 121.752C339.086 117.751 341.333 112.325 341.333 106.667V85.3333H362.667C368.325 85.3333 373.751 87.581 377.752 91.5817C381.752 95.5825 384 101.009 384 106.667V170.667ZM106.667 298.667C110.886 298.667 115.011 297.415 118.519 295.071C122.027 292.727 124.761 289.395 126.376 285.497C127.991 281.599 128.413 277.31 127.59 273.171C126.767 269.033 124.735 265.232 121.752 262.248C118.768 259.265 114.967 257.233 110.829 256.41C106.69 255.587 102.401 256.009 98.5028 257.624C94.6046 259.239 91.2728 261.973 88.9286 265.481C86.5845 268.989 85.3333 273.114 85.3333 277.333C85.3333 282.991 87.5809 288.418 91.5817 292.418C95.5825 296.419 101.009 298.667 106.667 298.667ZM106.667 384C110.886 384 115.011 382.749 118.519 380.405C122.027 378.061 124.761 374.729 126.376 370.831C127.991 366.932 128.413 362.643 127.59 358.505C126.767 354.366 124.735 350.565 121.752 347.582C118.768 344.598 114.967 342.566 110.829 341.743C106.69 340.92 102.401 341.343 98.5028 342.957C94.6046 344.572 91.2728 347.306 88.9286 350.815C86.5845 354.323 85.3333 358.447 85.3333 362.667C85.3333 368.325 87.5809 373.751 91.5817 377.752C95.5825 381.752 101.009 384 106.667 384Z" fill="black"/>
</svg>
