<svg width="25" height="20" viewBox="0 0 25 20" fill="none" xmlns="http://www.w3.org/2000/svg">
<path d="M24.8957 9.5C22.3716 3.6375 17.6232 0 12.5 0C7.37679 0 2.62844 3.6375 0.10432 9.5C0.0355144 9.65771 0 9.82793 0 10C0 10.1721 0.0355144 10.3423 0.10432 10.5C2.62844 16.3625 7.37679 20 12.5 20C17.6232 20 22.3716 16.3625 24.8957 10.5C24.9645 10.3423 25 10.1721 25 10C25 9.82793 24.9645 9.65771 24.8957 9.5ZM12.5 17.5C8.53888 17.5 4.79019 14.6375 2.62844 10C4.79019 5.3625 8.53888 2.5 12.5 2.5C16.4611 2.5 20.2098 5.3625 22.3716 10C20.2098 14.6375 16.4611 17.5 12.5 17.5ZM12.5 5C11.5114 5 10.5451 5.29325 9.72312 5.84265C8.90116 6.39206 8.26052 7.17295 7.88221 8.08658C7.5039 9.00021 7.40492 10.0055 7.59778 10.9755C7.79064 11.9454 8.26668 12.8363 8.9657 13.5355C9.66472 14.2348 10.5553 14.711 11.5249 14.9039C12.4945 15.0969 13.4994 14.9978 14.4128 14.6194C15.3261 14.241 16.1067 13.6001 16.6559 12.7779C17.2051 11.9556 17.4983 10.9889 17.4983 10C17.4983 8.67392 16.9717 7.40215 16.0343 6.46447C15.0969 5.52678 13.8256 5 12.5 5ZM12.5 12.5C12.0057 12.5 11.5225 12.3534 11.1116 12.0787C10.7006 11.804 10.3803 11.4135 10.1911 10.9567C10.002 10.4999 9.95246 9.99723 10.0489 9.51227C10.1453 9.02732 10.3833 8.58186 10.7328 8.23223C11.0824 7.8826 11.5277 7.6445 12.0124 7.54804C12.4972 7.45157 12.9997 7.50108 13.4564 7.6903C13.913 7.87952 14.3033 8.19995 14.5779 8.61107C14.8526 9.0222 14.9991 9.50555 14.9991 10C14.9991 10.663 14.7358 11.2989 14.2671 11.7678C13.7985 12.2366 13.1628 12.5 12.5 12.5Z" fill="black"/>
</svg>
