<svg width="34" height="34" viewBox="0 0 34 34" fill="none" xmlns="http://www.w3.org/2000/svg">
<path d="M11.9 15.3C11.5638 15.3 11.2351 15.3996 10.9555 15.5865C10.676 15.7733 10.4581 16.0388 10.3294 16.3494C10.2007 16.66 10.1671 17.0019 10.2327 17.3317C10.2983 17.6615 10.4602 17.9644 10.6979 18.2021C10.9357 18.4399 11.2386 18.6017 11.5683 18.6674C11.8981 18.733 12.2399 18.6993 12.5506 18.5706C12.8612 18.4419 13.1267 18.224 13.3135 17.9445C13.5003 17.6649 13.6 17.3363 13.6 17C13.6 16.5492 13.4209 16.1167 13.1021 15.7979C12.7833 15.4792 12.3509 15.3 11.9 15.3ZM11.9 22.1C11.5638 22.1 11.2351 22.1996 10.9555 22.3864C10.676 22.5733 10.4581 22.8388 10.3294 23.1494C10.2007 23.46 10.1671 23.8019 10.2327 24.1317C10.2983 24.4615 10.4602 24.7644 10.6979 25.0021C10.9357 25.2399 11.2386 25.4017 11.5683 25.4674C11.8981 25.533 12.2399 25.4993 12.5506 25.3706C12.8612 25.2419 13.1267 25.024 13.3135 24.7445C13.5003 24.4649 13.6 24.1363 13.6 23.8C13.6 23.3492 13.4209 22.9167 13.1021 22.5979C12.7833 22.2792 12.3509 22.1 11.9 22.1ZM11.9 8.5C11.5638 8.5 11.2351 8.5997 10.9555 8.7865C10.676 8.9733 10.4581 9.2388 10.3294 9.54944C10.2007 9.86007 10.1671 10.2019 10.2327 10.5317C10.2983 10.8614 10.4602 11.1643 10.6979 11.4021C10.9357 11.6398 11.2386 11.8017 11.5683 11.8673C11.8981 11.9329 12.2399 11.8993 12.5506 11.7706C12.8612 11.6419 13.1267 11.424 13.3135 11.1445C13.5003 10.8649 13.6 10.5362 13.6 10.2C13.6 9.74913 13.4209 9.31673 13.1021 8.99791C12.7833 8.67911 12.3509 8.5 11.9 8.5ZM22.1 8.5C21.7637 8.5 21.4351 8.5997 21.1555 8.7865C20.876 8.9733 20.6581 9.2388 20.5294 9.54944C20.4007 9.86007 20.367 10.2019 20.4326 10.5317C20.4983 10.8614 20.6601 11.1643 20.8979 11.4021C21.1356 11.6398 21.4385 11.8017 21.7683 11.8673C22.0981 11.9329 22.44 11.8993 22.7506 11.7706C23.0612 11.6419 23.3267 11.424 23.5135 11.1445C23.7004 10.8649 23.8 10.5362 23.8 10.2C23.8 9.74913 23.6208 9.31673 23.3021 8.99791C22.9833 8.67911 22.5508 8.5 22.1 8.5ZM25.5 0H8.5C6.24566 0 4.08365 0.895526 2.4896 2.4896C0.895526 4.08365 0 6.24566 0 8.5V25.5C0 27.7544 0.895526 29.9164 2.4896 31.5103C4.08365 33.1044 6.24566 34 8.5 34H25.5C27.7544 34 29.9164 33.1044 31.5103 31.5103C33.1044 29.9164 34 27.7544 34 25.5V8.5C34 6.24566 33.1044 4.08365 31.5103 2.4896C29.9164 0.895526 27.7544 0 25.5 0ZM30.6 25.5C30.6 26.8525 30.0626 28.1498 29.1062 29.1062C28.1498 30.0626 26.8525 30.6 25.5 30.6H8.5C7.1474 30.6 5.85019 30.0626 4.89376 29.1062C3.93732 28.1498 3.4 26.8525 3.4 25.5V8.5C3.4 7.1474 3.93732 5.85019 4.89376 4.89376C5.85019 3.93732 7.1474 3.4 8.5 3.4H25.5C26.8525 3.4 28.1498 3.93732 29.1062 4.89376C30.0626 5.85019 30.6 7.1474 30.6 8.5V25.5ZM22.1 15.3C21.7637 15.3 21.4351 15.3996 21.1555 15.5865C20.876 15.7733 20.6581 16.0388 20.5294 16.3494C20.4007 16.66 20.367 17.0019 20.4326 17.3317C20.4983 17.6615 20.6601 17.9644 20.8979 18.2021C21.1356 18.4399 21.4385 18.6017 21.7683 18.6674C22.0981 18.733 22.44 18.6993 22.7506 18.5706C23.0612 18.4419 23.3267 18.224 23.5135 17.9445C23.7004 17.6649 23.8 17.3363 23.8 17C23.8 16.5492 23.6208 16.1167 23.3021 15.7979C22.9833 15.4792 22.5508 15.3 22.1 15.3ZM22.1 22.1C21.7637 22.1 21.4351 22.1996 21.1555 22.3864C20.876 22.5733 20.6581 22.8388 20.5294 23.1494C20.4007 23.46 20.367 23.8019 20.4326 24.1317C20.4983 24.4615 20.6601 24.7644 20.8979 25.0021C21.1356 25.2399 21.4385 25.4017 21.7683 25.4674C22.0981 25.533 22.44 25.4993 22.7506 25.3706C23.0612 25.2419 23.3267 25.024 23.5135 24.7445C23.7004 24.4649 23.8 24.1363 23.8 23.8C23.8 23.3492 23.6208 22.9167 23.3021 22.5979C22.9833 22.2792 22.5508 22.1 22.1 22.1Z" fill="#0E0505"/>
</svg>
