<svg width="25" height="25" viewBox="0 0 25 25" fill="none" xmlns="http://www.w3.org/2000/svg">
<path d="M15.6372 2.03455C15.361 2.03455 15.0769 2.17882 14.8775 2.36975C13.2643 3.91434 12.7704 5.206 13.3602 6.97538C11.984 8.03017 11.1149 8.28903 9.39693 8.28903C7.04849 8.28903 5.51516 8.57215 4.47182 9.61476V9.64725C3.49557 10.6231 3.49557 12.1856 4.47182 13.1606L7.3887 16.1002L2.4188 21.0679C2.01203 21.4741 1.98172 22.1564 2.38849 22.5627C2.79536 22.97 3.47911 22.97 3.88599 22.5627L8.87432 17.5731L11.7961 20.4804C12.7725 21.4564 14.3354 21.4564 15.3117 20.4804H15.3443C16.3881 19.4377 16.6789 18.1012 16.6789 15.5679C16.6789 13.9575 17.0094 12.821 18.0102 11.6252C19.9361 12.1898 21.0566 11.6491 22.636 10.0703C22.8313 9.87496 22.9289 9.59809 22.9289 9.32194C22.9289 8.95559 22.8364 8.39403 22.6034 7.69528C22.2281 6.57017 21.5819 5.43819 20.5527 4.40944C19.5233 3.3808 18.3906 2.73496 17.2649 2.35986C16.5657 2.12694 16.0038 2.03455 15.6372 2.03455ZM16.0407 4.17475C17.1474 4.38017 18.2616 5.11278 19.0552 5.906C19.8488 6.69913 20.5247 7.67058 20.8044 8.94382C19.8102 9.89757 19.202 9.97298 18.2077 9.44955C17.811 9.24069 17.3084 9.31455 16.9914 9.63142C15.0945 11.5273 14.5956 13.2471 14.5956 15.5679C14.5956 17.5887 14.4767 18.3398 13.8468 19.0168C13.669 19.2085 13.4237 19.1793 13.261 19.0168L5.93672 11.6971C5.77401 11.5346 5.77901 11.3262 5.91016 11.1668C6.28224 10.7137 7.11036 10.3617 9.38724 10.363C12.1091 10.3645 13.5561 9.66361 15.3443 7.98809C15.6613 7.67121 15.7401 7.18517 15.5395 6.78434C15.0039 5.71361 15.0875 5.14923 16.0407 4.17475Z" fill="#514E4E"/>
</svg>
