<svg width="21" height="21" viewBox="0 0 21 21" fill="none" xmlns="http://www.w3.org/2000/svg">
<g clip-path="url(#clip0_270_2059)">
<path fill-rule="evenodd" clip-rule="evenodd" d="M4.01579 9.18227C4.33846 9.16902 4.63487 9.41773 4.67784 9.7378L4.84015 10.9466L8.03505 7.13905C9.46008 5.44076 12.1023 5.28067 14.0194 6.77651C16.0452 8.35717 16.4778 11.1652 14.9719 12.9598L11.9868 16.5173C11.7891 16.753 11.4191 16.7682 11.1606 16.5512C10.902 16.3343 10.8528 15.9673 11.0505 15.7316L14.0356 12.1741C15.135 10.864 14.8192 8.81394 13.3403 7.66002C11.9407 6.56795 10.0117 6.68482 8.97132 7.92468L5.77644 11.7322L6.995 11.6821C7.31768 11.6689 7.61406 11.9176 7.65708 12.2377C7.70004 12.5577 7.47331 12.8279 7.15065 12.8412L4.52159 12.9492C4.36665 12.9556 4.20984 12.9006 4.08568 12.7964C3.96153 12.6923 3.88018 12.5474 3.85954 12.3937L3.50938 9.7858C3.4664 9.46574 3.69313 9.19553 4.01579 9.18227Z" fill="black"/>
</g>
<defs>
<clipPath id="clip0_270_2059">
<rect width="14.2529" height="14.2529" fill="white" transform="translate(0 10.9183) rotate(-50)"/>
</clipPath>
</defs>
</svg>
