<svg width="34" height="34" viewBox="0 0 34 34" fill="none" xmlns="http://www.w3.org/2000/svg">
<path d="M4.03997 23.0007C6.34787 25.3118 9.42125 26.6993 12.6811 26.9015C15.941 27.1038 19.1623 26.1072 21.7383 24.099L30.6017 32.9623C30.916 33.266 31.337 33.434 31.774 33.4302C32.211 33.4263 32.629 33.2512 32.938 32.942C33.247 32.633 33.4223 32.215 33.4262 31.778C33.4298 31.341 33.2618 30.92 32.9583 30.6057L24.095 21.7423C26.1922 19.051 27.1837 15.661 26.8673 12.2636C26.5508 8.86634 24.9505 5.71769 22.3925 3.45981C19.8343 1.20191 16.5113 0.00487432 13.1011 0.112824C9.69078 0.220774 6.45012 1.62556 4.03997 4.04069C2.79463 5.28539 1.80675 6.76328 1.13273 8.38989C0.458733 10.0165 0.111816 11.76 0.111816 13.5207C0.111816 15.2815 0.458733 17.0248 1.13273 18.6515C1.80675 20.2782 2.79463 21.756 4.03997 23.0007ZM6.39663 6.40069C8.04427 4.75311 10.2122 3.72776 12.531 3.49936C14.8498 3.27094 17.1762 3.85361 19.1135 5.14807C21.051 6.44252 22.4797 8.36869 23.1562 10.5984C23.8327 12.8281 23.7152 15.2233 22.8235 17.3762C21.932 19.5288 20.3217 21.306 18.2668 22.4045C16.212 23.5032 13.8399 23.8552 11.5545 23.4008C9.26917 22.9465 7.21205 21.7138 5.73363 19.913C4.25522 18.112 3.44698 15.8542 3.44663 13.524C3.44207 12.2 3.70048 10.8882 4.20688 9.66483C4.7133 8.44144 5.4576 7.33081 6.39663 6.39736V6.40069Z" fill="currentColor"/>
</svg>
