<svg width="35" height="35" viewBox="0 0 35 35" fill="none" xmlns="http://www.w3.org/2000/svg">
  <path 
    fill="none"
    vector-effect="non-scaling-stroke"
    d="M25.8432 16.8647L10.4473 8.24292C10.3177 8.1704 10.1692 8.13912 10.0214 8.1533C9.87361 8.16746 9.73369 8.2264 9.62031 8.32222C9.50693 8.41804 9.42549 8.54618 9.3869 8.68952C9.3483 8.83287 9.35437 8.98457 9.40429 9.12437L12.3083 17.2556C12.3649 17.4142 12.3649 17.5875 12.3083 17.7461L9.40429 25.8773C9.35437 26.0171 9.3483 26.1688 9.3869 26.3121C9.42549 26.4554 9.50693 26.5836 9.62031 26.6794C9.73369 26.7753 9.87362 26.8342 10.0214 26.8484C10.1692 26.8625 10.3177 26.8313 10.4473 26.7588L25.8432 18.137C25.9562 18.0737 26.0504 17.9814 26.116 17.8695C26.1815 17.7577 26.216 17.6305 26.216 17.5008C26.216 17.3712 26.1815 17.2439 26.116 17.1321C26.0504 17.0203 25.9562 16.9279 25.8432 16.8647Z" 
    stroke="currentColor" 
    stroke-opacity="0.68"
    stroke-width="2.5"
    stroke-linecap="round" 
    stroke-linejoin="round"
  />
  <path 
    fill="none"
    vector-effect="non-scaling-stroke"
    d="M12.396 17.5H18.2293" 
    stroke="currentColor" 
    stroke-opacity="0.68"
    stroke-width="2.5"
    stroke-linecap="round" 
    stroke-linejoin="round"
  />
</svg>